<svg xmlns="http://www.w3.org/2000/svg" xmlns:xlink="http://www.w3.org/1999/xlink" width="2000" zoomAndPan="magnify" viewBox="0 0 1500 1499.999933" height="2000" preserveAspectRatio="xMidYMid meet" version="1.0"><defs><g/><clipPath id="df099ee3d4"><path d="M 174 560 L 1326 560 L 1326 854 L 174 854 Z M 174 560 " clip-rule="nonzero"/></clipPath></defs><path fill="#ffffff" d="M 338.898438 675.5 C 338.550781 683.53125 338.320312 691.621094 338.4375 699.710938 C 336.703125 703.003906 335.085938 706.355469 333.640625 709.707031 C 334.914062 698.152344 336.703125 686.710938 338.898438 675.5 Z M 503.9375 422.175781 C 496.601562 430.382812 489.957031 439.511719 483.894531 449.453125 C 470.085938 456.386719 457.378906 463.898438 445.824219 471.988281 C 463.558594 453.667969 483.027344 436.914062 503.9375 422.175781 Z M 1032.09375 471.929688 C 1020.542969 463.839844 1007.777344 456.269531 993.96875 449.394531 C 987.902344 439.339844 981.144531 430.152344 973.75 421.890625 C 992.699219 435.238281 1010.664062 450.261719 1027.359375 466.960938 C 1028.976562 468.519531 1030.535156 470.253906 1032.09375 471.929688 Z M 1139.484375 699.652344 C 1139.65625 691.449219 1139.425781 683.359375 1139.019531 675.269531 C 1141.214844 686.476562 1142.890625 697.746094 1144.164062 709.1875 C 1142.777344 706.007812 1141.214844 702.773438 1139.484375 699.652344 Z M 1137.867188 840.757812 C 1137 825.332031 1132.667969 810.308594 1125.042969 795.6875 C 1132.667969 768.820312 1137.34375 741.488281 1138.90625 714.15625 C 1143.007812 723.980469 1145.492188 733.976562 1146.589844 744.089844 C 1146.644531 747.84375 1146.820312 751.65625 1146.820312 755.472656 C 1146.820312 784.480469 1143.757812 813.023438 1137.867188 840.757812 Z M 1018.171875 1052.707031 C 1019.15625 1051.265625 1020.023438 1049.761719 1020.890625 1048.257812 C 1024.125 1045.832031 1027.242188 1043.289062 1030.421875 1040.746094 C 1029.378906 1041.789062 1028.398438 1042.941406 1027.359375 1043.984375 C 1024.355469 1046.988281 1021.234375 1049.820312 1018.171875 1052.707031 Z M 447.269531 1040.515625 C 450.445312 1043.117188 453.621094 1045.714844 456.859375 1048.144531 C 457.722656 1049.644531 458.648438 1051.148438 459.628906 1052.652344 C 456.570312 1049.761719 453.507812 1046.929688 450.503906 1043.984375 C 449.40625 1042.828125 448.367188 1041.671875 447.269531 1040.515625 Z M 379.394531 659.320312 C 379.738281 685.898438 383.089844 713.175781 389.675781 741.027344 C 390.195312 743.105469 390.714844 745.1875 391.234375 747.265625 C 387.539062 750.503906 384.015625 753.796875 380.664062 757.148438 C 370.496094 767.316406 362.121094 777.832031 355.652344 788.523438 C 348.316406 761.078125 344.15625 733.226562 343.230469 705.316406 C 351.492188 689.136719 363.679688 673.707031 379.394531 659.320312 Z M 356.863281 612.632812 C 364.777344 597.375 376.273438 582.929688 390.890625 569.523438 C 383.550781 595.410156 379.683594 622.511719 379.335938 650.421875 C 375.347656 653.886719 371.535156 657.414062 367.957031 660.9375 C 357.902344 671.050781 349.644531 681.335938 343 691.910156 C 343.058594 675.960938 344.214844 660.070312 346.410156 644.296875 C 349.46875 633.546875 352.992188 622.972656 356.863281 612.632812 Z M 419.078125 502.613281 C 416.304688 507.40625 413.648438 512.320312 411.164062 517.289062 C 408.046875 520.003906 405.042969 522.664062 402.210938 525.492188 C 407.582031 517.636719 413.1875 509.949219 419.078125 502.613281 Z M 468.640625 479.671875 C 450.332031 488.976562 434.039062 499.144531 420.003906 510.066406 C 424.449219 501.917969 429.359375 493.945312 434.617188 486.144531 C 447.671875 475.453125 462.808594 465.574219 479.617188 456.730469 C 475.632812 464.011719 471.933594 471.640625 468.640625 479.671875 Z M 556.042969 426.222656 C 552.578125 433.445312 549.457031 441.1875 546.683594 449.335938 C 535.015625 452.746094 523.695312 456.5 512.71875 460.546875 C 499.316406 465.574219 486.78125 470.890625 474.996094 476.609375 C 478.636719 468.230469 482.679688 460.316406 487.128906 452.859375 C 507.867188 442.574219 531.03125 433.617188 556.042969 426.222656 Z M 524.328125 408.597656 C 530.277344 404.902344 536.285156 401.375 542.410156 398.023438 C 556.101562 391.726562 570.945312 386.121094 586.660156 381.324219 C 575.800781 392.417969 566.5 405.535156 558.699219 420.734375 C 534.554688 427.726562 511.96875 436.101562 491.574219 445.695312 C 500.992188 431.363281 511.96875 418.941406 524.328125 408.597656 Z M 593.765625 374.507812 C 592.722656 374.738281 591.683594 375.027344 590.644531 375.375 C 591.914062 374.851562 593.1875 374.390625 594.457031 373.929688 C 594.226562 374.101562 593.996094 374.273438 593.765625 374.507812 Z M 663.605469 360.175781 C 642.691406 362.890625 622.53125 366.820312 603.410156 371.847656 C 603.527344 371.445312 603.585938 370.980469 603.527344 370.578125 C 624.667969 363.125 646.5625 357.34375 669.148438 353.472656 C 667.183594 355.496094 665.335938 357.75 663.605469 360.175781 Z M 874.507812 371.734375 C 855.386719 366.707031 835.226562 362.777344 814.257812 360.0625 C 812.582031 357.691406 810.792969 355.496094 808.886719 353.472656 C 831.242188 357.34375 853.191406 362.949219 874.449219 370.402344 C 874.335938 370.867188 874.335938 371.269531 874.507812 371.734375 Z M 883.925781 374.273438 C 883.75 374.101562 883.519531 373.929688 883.289062 373.699219 C 884.558594 374.21875 885.890625 374.679688 887.160156 375.199219 C 886.121094 374.910156 885.023438 374.5625 883.925781 374.273438 Z M 1002.921875 476.492188 C 991.140625 470.832031 978.605469 465.457031 965.257812 460.488281 C 954.226562 456.441406 942.902344 452.6875 931.292969 449.277344 C 928.519531 441.128906 925.34375 433.445312 921.878906 426.105469 C 946.890625 433.5625 970.054688 442.460938 990.734375 452.804688 C 995.242188 460.257812 999.285156 468.171875 1002.921875 476.492188 Z M 1043.1875 485.96875 C 1048.5 493.769531 1053.410156 501.746094 1057.859375 509.894531 C 1043.820312 499.03125 1027.589844 488.859375 1009.277344 479.613281 C 1005.984375 471.582031 1002.289062 463.898438 998.246094 456.617188 C 1015.054688 465.515625 1030.132812 475.28125 1043.1875 485.96875 Z M 1066.640625 517.117188 C 1064.15625 512.03125 1061.441406 507.0625 1058.609375 502.09375 C 1064.675781 509.777344 1070.511719 517.578125 1075.996094 525.550781 C 1072.992188 522.71875 1069.875 519.832031 1066.640625 517.117188 Z M 1110.078125 660.9375 C 1106.441406 657.355469 1102.628906 653.886719 1098.640625 650.363281 C 1098.238281 622.164062 1094.308594 594.835938 1086.859375 568.714844 C 1101.472656 582.238281 1112.96875 596.796875 1120.996094 612.226562 C 1124.984375 622.859375 1128.507812 633.664062 1131.570312 644.644531 C 1133.765625 660.300781 1134.863281 676.019531 1134.917969 691.851562 C 1128.335938 681.277344 1120.074219 670.992188 1110.078125 660.9375 Z M 1095.984375 757.148438 C 1092.980469 754.085938 1089.746094 751.136719 1086.453125 748.25 C 1087.089844 745.820312 1087.722656 743.394531 1088.246094 741.027344 C 1094.886719 713.175781 1098.238281 685.898438 1098.527344 659.378906 C 1100.835938 661.457031 1103.089844 663.597656 1105.226562 665.792969 C 1117.992188 678.503906 1127.8125 691.738281 1134.746094 705.257812 C 1133.820312 733.628906 1129.488281 762.058594 1121.863281 790.027344 C 1115.277344 778.757812 1106.613281 767.777344 1095.984375 757.148438 Z M 1105.054688 838.910156 C 1098.816406 828.394531 1090.671875 818.222656 1080.792969 808.285156 C 1077.441406 804.992188 1073.976562 801.8125 1070.335938 798.578125 C 1076.113281 783.496094 1081.140625 768.355469 1085.242188 753.160156 C 1087.78125 755.527344 1090.324219 757.898438 1092.808594 760.324219 C 1104.417969 771.941406 1113.546875 783.957031 1120.1875 796.207031 C 1116.03125 810.597656 1110.945312 824.867188 1105.054688 838.910156 Z M 1133.1875 854.742188 C 1129.316406 865.144531 1125.097656 875.082031 1120.535156 884.675781 C 1119.207031 870.75 1114.988281 857.113281 1107.828125 843.820312 C 1113.777344 830.070312 1118.917969 816.203125 1123.191406 802.101562 C 1130.066406 816.605469 1133.53125 831.515625 1133.53125 846.710938 C 1133.53125 849.371094 1133.417969 852.085938 1133.1875 854.742188 Z M 1120.941406 894.09375 C 1123.019531 890.046875 1124.984375 885.886719 1126.949219 881.671875 C 1124.984375 887.621094 1122.960938 893.457031 1120.765625 899.351562 C 1120.882812 897.558594 1120.941406 895.882812 1120.941406 894.09375 Z M 943.25 1085.703125 C 946.023438 1079.117188 947.46875 1072.414062 947.699219 1065.480469 C 974.214844 1051.667969 1001.769531 1033.929688 1027.9375 1011.566406 C 1027.183594 1022.949219 1023.605469 1034.21875 1017.480469 1045.140625 C 994.488281 1062.070312 969.074219 1075.476562 943.25 1085.703125 Z M 903.679688 1128.808594 C 903.335938 1128.925781 902.988281 1129.097656 902.640625 1129.15625 C 908.589844 1125.34375 914.078125 1121.414062 918.988281 1117.195312 C 927.363281 1114.710938 935.683594 1111.707031 943.769531 1108.410156 C 930.773438 1115.921875 917.429688 1122.742188 903.679688 1128.808594 Z M 558.46875 1117.019531 C 563.207031 1121.179688 568.519531 1125.109375 574.296875 1128.808594 C 574.179688 1128.808594 574.066406 1128.75 573.949219 1128.695312 C 560.316406 1122.683594 546.914062 1115.867188 533.976562 1108.296875 C 541.949219 1111.589844 550.152344 1114.535156 558.46875 1117.019531 Z M 449.984375 1011.566406 C 476.152344 1033.871094 503.707031 1051.609375 530.222656 1065.421875 C 530.394531 1072.296875 531.839844 1079.058594 534.554688 1085.644531 C 508.789062 1075.359375 483.371094 1062.011719 460.382812 1045.082031 C 454.257812 1034.160156 450.675781 1022.890625 449.984375 1011.566406 Z M 356.921875 893.921875 C 356.921875 895.710938 357.039062 897.445312 357.09375 899.292969 C 354.84375 893.285156 352.761719 887.273438 350.800781 881.207031 C 352.761719 885.542969 354.785156 889.816406 356.921875 893.921875 Z M 407.582031 798.519531 C 403.945312 801.753906 400.421875 804.933594 397.128906 808.285156 C 387.191406 818.167969 379.164062 828.394531 372.921875 838.792969 C 366.800781 824.292969 361.601562 809.554688 357.328125 794.648438 C 365.703125 779.683594 377.601562 765.46875 392.507812 752.179688 C 396.609375 767.664062 401.691406 783.148438 407.582031 798.519531 Z M 456.800781 709.648438 C 460.035156 725.886719 463.964844 742.238281 468.585938 758.535156 C 446.804688 769.453125 427.511719 781.820312 411.28125 795.398438 C 405.386719 779.914062 400.363281 764.371094 396.320312 748.882812 C 413.128906 734.496094 433.460938 721.378906 456.800781 709.648438 Z M 454.375 526.417969 C 449.636719 548.261719 446.804688 571.835938 446.285156 597.085938 C 446.171875 600.265625 446.230469 603.445312 446.230469 606.621094 C 422.601562 618.410156 401.632812 631.757812 384.015625 646.433594 C 384.765625 617.773438 389.214844 590.097656 397.417969 563.6875 C 413.417969 550.109375 432.597656 537.628906 454.375 526.417969 Z M 455.703125 520.292969 C 434.503906 531.042969 415.785156 542.886719 399.957031 555.597656 C 404.175781 543.40625 409.144531 531.503906 414.917969 519.890625 C 429.476562 507.40625 446.804688 495.96875 466.390625 485.679688 C 462.230469 496.601562 458.589844 508.160156 455.703125 520.292969 Z M 536.34375 488.976562 C 519.765625 493.828125 503.820312 499.316406 488.804688 505.328125 C 479.15625 509.257812 469.914062 513.359375 461.074219 517.636719 C 464.195312 505.328125 467.949219 493.539062 472.398438 482.5625 C 494.117188 471.640625 518.550781 462.164062 544.953125 454.304688 C 541.542969 465.109375 538.597656 476.667969 536.34375 488.976562 Z M 637.722656 434.484375 C 635.933594 445.347656 634.433594 456.730469 633.335938 468.460938 C 601.160156 472.910156 570.195312 479.265625 541.195312 487.53125 C 543.621094 475.105469 546.625 463.550781 550.265625 452.746094 C 577.53125 444.886719 606.878906 438.761719 637.722656 434.484375 Z M 643.269531 407.675781 C 641.480469 414.722656 639.917969 422.121094 638.476562 429.921875 C 608.378906 434.023438 579.324219 439.976562 552 447.71875 C 554.945312 439.511719 558.179688 431.769531 561.820312 424.488281 C 587.292969 417.265625 614.675781 411.601562 643.269531 407.675781 Z M 736.679688 396.753906 C 706.699219 396.8125 677.292969 398.71875 649.164062 402.300781 C 653.609375 386.988281 659.214844 374.101562 665.914062 364.453125 C 688.847656 361.449219 712.53125 359.886719 736.679688 359.773438 Z M 828.816406 402.300781 C 800.625 398.71875 771.222656 396.8125 741.183594 396.753906 L 741.183594 359.773438 C 765.445312 359.828125 789.128906 361.390625 811.890625 364.277344 C 818.707031 373.988281 824.253906 386.871094 828.816406 402.300781 Z M 839.445312 429.863281 C 838.058594 422.121094 836.5 414.664062 834.648438 407.617188 C 863.300781 411.546875 890.625 417.207031 916.101562 424.429688 C 919.738281 431.710938 923.03125 439.511719 925.980469 447.71875 C 898.597656 439.917969 869.597656 433.964844 839.445312 429.863281 Z M 936.722656 487.355469 C 907.957031 479.210938 877.050781 472.796875 844.644531 468.347656 C 843.488281 456.617188 842.042969 445.289062 840.195312 434.484375 C 871.101562 438.703125 900.445312 444.886719 927.710938 452.6875 C 931.292969 463.492188 934.296875 474.992188 936.722656 487.355469 Z M 1016.84375 517.347656 C 994.144531 506.367188 968.898438 496.777344 941.574219 488.800781 C 939.265625 476.492188 936.433594 465.054688 932.96875 454.246094 C 959.425781 462.164062 983.800781 471.582031 1005.523438 482.445312 C 1009.972656 493.425781 1013.726562 505.097656 1016.84375 517.347656 Z M 1022.21875 519.945312 C 1019.269531 507.871094 1015.691406 496.429688 1011.53125 485.625 C 1031.113281 495.851562 1048.386719 507.292969 1062.941406 519.773438 C 1068.660156 531.214844 1073.6875 543.058594 1077.847656 555.136719 C 1061.902344 542.367188 1043.1875 530.519531 1022.21875 519.945312 Z M 1031.75 606.5625 C 1031.75 603.445312 1031.75 600.265625 1031.691406 597.085938 C 1031.113281 571.546875 1028.28125 547.625 1023.429688 525.550781 C 1045.152344 536.703125 1064.328125 549.242188 1080.273438 562.878906 C 1088.589844 589.574219 1093.210938 617.484375 1093.964844 646.375 C 1076.285156 631.757812 1055.375 618.410156 1031.75 606.5625 Z M 1009.335938 758.535156 C 1013.957031 742.414062 1017.828125 726.289062 1021.003906 710.285156 C 1044.398438 722.128906 1064.675781 735.363281 1081.371094 749.808594 C 1077.382812 765.003906 1072.472656 780.316406 1066.699219 795.457031 C 1050.40625 781.820312 1031.113281 769.511719 1009.335938 758.535156 Z M 1047.058594 840.296875 C 1031.921875 827.644531 1014.015625 816.144531 993.796875 805.972656 C 999.109375 791.703125 1003.847656 777.371094 1008.066406 762.925781 C 1029.785156 773.902344 1048.90625 786.269531 1064.964844 799.90625 C 1059.648438 813.484375 1053.699219 826.949219 1047.058594 840.296875 Z M 1083.738281 882.191406 C 1077.789062 872.019531 1069.988281 862.082031 1060.34375 852.375 C 1057.28125 849.3125 1053.929688 846.308594 1050.582031 843.359375 C 1057.28125 830.070312 1063.230469 816.605469 1068.605469 803.085938 C 1071.664062 805.859375 1074.726562 808.632812 1077.558594 811.464844 C 1088.128906 822.09375 1096.503906 832.957031 1102.800781 844.167969 C 1097.140625 856.996094 1090.84375 869.707031 1083.738281 882.191406 Z M 848.570312 1096.914062 C 848.226562 1093.503906 847.300781 1090.09375 845.800781 1086.742188 C 878.609375 1074.089844 909.285156 1058.660156 937.53125 1040.632812 C 941.113281 1047.796875 942.960938 1055.191406 943.136719 1062.761719 C 907.667969 1080.964844 874.164062 1091.941406 848.570312 1096.914062 Z M 846.894531 1110.375 C 847.9375 1107.542969 848.515625 1104.539062 848.6875 1101.535156 C 874.164062 1096.566406 907.492188 1085.816406 943.019531 1067.847656 C 942.5 1074.667969 940.59375 1081.425781 937.359375 1087.957031 C 906.222656 1099.6875 874.914062 1107.023438 846.894531 1110.375 Z M 823.90625 1136.03125 C 827.890625 1133.546875 831.472656 1130.832031 834.59375 1128 C 857.929688 1129.558594 883.230469 1126.730469 908.1875 1120.257812 C 901.371094 1125.226562 893.628906 1129.90625 885.253906 1134.125 C 865.960938 1138.804688 850.421875 1138.921875 823.90625 1136.03125 Z M 684.054688 1148.917969 C 700.402344 1153.65625 719.234375 1156.371094 738.929688 1156.371094 C 748.695312 1156.371094 758.109375 1155.734375 767.0625 1154.582031 C 770.066406 1157.527344 773.1875 1159.953125 776.363281 1161.746094 C 764 1162.84375 751.523438 1163.480469 738.929688 1163.480469 C 711.320312 1163.480469 684.109375 1160.707031 657.597656 1155.390625 C 666.839844 1154.582031 675.386719 1152.441406 684.054688 1148.917969 Z M 643.5 1128 C 646.621094 1130.832031 650.203125 1133.546875 654.1875 1136.03125 C 627.5 1138.921875 611.960938 1138.804688 592.550781 1134.066406 C 584.175781 1129.847656 576.492188 1125.226562 569.675781 1120.199219 C 594.6875 1126.730469 620.105469 1129.558594 643.5 1128 Z M 629.234375 1101.535156 C 629.40625 1104.480469 629.984375 1107.488281 631.023438 1110.375 C 603.007812 1106.96875 571.640625 1099.6875 540.503906 1087.898438 C 537.269531 1081.367188 535.363281 1074.667969 534.898438 1067.847656 C 570.367188 1085.761719 603.699219 1096.566406 629.234375 1101.535156 Z M 540.332031 1040.515625 C 568.636719 1058.660156 599.308594 1074.089844 632.121094 1086.683594 C 630.5625 1090.035156 629.636719 1093.445312 629.289062 1096.914062 C 603.699219 1091.886719 570.253906 1080.90625 534.726562 1062.703125 C 534.898438 1055.078125 536.863281 1047.679688 540.332031 1040.515625 Z M 391.640625 886.695312 C 384.996094 899.179688 381.125 912.007812 380.085938 925.179688 C 373.441406 914.894531 367.203125 904.261719 361.484375 892.9375 C 361.660156 877.914062 365.414062 863.296875 372.402344 849.253906 C 378.121094 861.964844 384.535156 874.445312 391.640625 886.695312 Z M 427.398438 843.300781 C 423.929688 846.308594 420.636719 849.3125 417.519531 852.375 C 407.929688 862.023438 400.132812 871.960938 394.179688 882.132812 C 387.132812 869.652344 380.78125 856.996094 375.175781 844.167969 C 383.261719 829.664062 394.816406 815.914062 409.316406 803.085938 C 414.6875 816.546875 420.695312 830.011719 427.398438 843.300781 Z M 484.179688 805.917969 C 463.90625 816.085938 445.996094 827.585938 430.863281 840.238281 C 424.21875 826.949219 418.269531 813.429688 412.957031 799.90625 C 428.839844 786.5 448.019531 774.136719 469.914062 763.097656 C 474.128906 777.429688 478.867188 791.757812 484.179688 805.917969 Z M 548.53125 732.761719 C 551.652344 747.382812 555.175781 762.175781 559.105469 777.023438 C 533.339844 784.480469 509.597656 793.492188 488.226562 803.894531 C 482.96875 789.679688 478.230469 775.40625 474.015625 761.078125 C 496.3125 750.214844 521.382812 740.679688 548.53125 732.761719 Z M 538.367188 678.101562 C 540.90625 694.511719 543.910156 711.210938 547.492188 728.140625 C 520.402344 736 495.273438 745.476562 472.742188 756.511719 C 468.121094 740.160156 464.195312 723.804688 460.960938 707.570312 C 484.179688 696.242188 510.175781 686.304688 538.367188 678.101562 Z M 529.644531 581.660156 C 530.222656 610.550781 532.9375 641.347656 537.671875 673.417969 C 509.539062 681.566406 483.488281 691.390625 460.035156 702.832031 C 454.144531 671.859375 451.023438 641.347656 450.675781 612.054688 C 474.304688 600.382812 500.816406 590.210938 529.644531 581.660156 Z M 531.203125 527.054688 C 529.875 542.136719 529.355469 558.027344 529.46875 574.496094 C 501.050781 582.816406 474.59375 592.871094 450.734375 604.367188 C 450.734375 602 450.734375 599.570312 450.792969 597.203125 C 451.371094 570.910156 454.375 546.296875 459.574219 523.761719 C 482.390625 512.492188 507.808594 502.554688 535.421875 494.234375 C 533.628906 504.691406 532.183594 515.554688 531.203125 527.054688 Z M 629.925781 553.460938 C 596.191406 558.027344 564.015625 564.671875 533.976562 573.164062 C 533.859375 557.507812 534.4375 542.195312 535.710938 527.402344 C 536.75 515.324219 538.308594 503.769531 540.214844 492.90625 C 569.15625 484.410156 600.292969 477.765625 632.871094 473.199219 C 630.621094 499.085938 629.753906 526.59375 629.925781 553.460938 Z M 736.679688 465.804688 L 736.679688 546.296875 C 701.324219 546.410156 666.78125 548.722656 633.621094 553 C 633.566406 524.339844 634.605469 497.238281 636.859375 472.621094 C 668.976562 468.347656 702.421875 465.976562 736.679688 465.804688 Z M 736.679688 427.726562 L 736.679688 461.296875 C 703 461.414062 669.613281 463.664062 637.320312 467.882812 C 638.53125 455.980469 640.035156 444.539062 641.941406 433.964844 C 672.269531 429.976562 704.039062 427.839844 736.679688 427.726562 Z M 736.679688 423.160156 C 704.558594 423.277344 673.136719 425.355469 642.75 429.285156 C 644.253906 421.484375 645.925781 414.03125 647.777344 407.097656 C 676.371094 403.339844 706.175781 401.375 736.679688 401.261719 Z M 741.183594 423.160156 L 741.183594 401.261719 C 771.742188 401.375 801.550781 403.339844 830.144531 407.039062 C 832.050781 413.972656 833.667969 421.425781 835.167969 429.285156 C 804.785156 425.355469 773.300781 423.277344 741.183594 423.160156 Z M 741.183594 461.296875 L 741.183594 427.726562 C 773.878906 427.78125 805.652344 429.921875 836.035156 433.90625 C 837.886719 444.539062 839.386719 455.867188 840.601562 467.769531 C 808.769531 463.609375 775.382812 461.414062 741.183594 461.296875 Z M 844.296875 553 C 811.195312 548.664062 776.59375 546.355469 741.183594 546.296875 L 741.183594 465.804688 C 775.613281 465.917969 809.058594 468.230469 841.0625 472.390625 C 843.371094 497.066406 844.414062 524.28125 844.296875 553 Z M 942.269531 527.402344 C 943.539062 542.195312 944.058594 557.507812 943.945312 573.164062 C 913.964844 564.671875 881.789062 558.027344 848.050781 553.460938 C 848.167969 526.476562 847.359375 498.914062 845.046875 472.910156 C 877.742188 477.417969 908.765625 483.949219 937.589844 492.210938 C 939.613281 503.363281 941.171875 515.09375 942.269531 527.402344 Z M 948.449219 574.496094 C 948.621094 558.027344 948.046875 542.136719 946.773438 527.054688 C 945.734375 515.382812 944.289062 504.289062 942.441406 493.597656 C 970.054688 501.804688 995.472656 511.625 1018.230469 522.894531 C 1023.488281 545.71875 1026.550781 570.566406 1027.183594 597.203125 C 1027.242188 599.570312 1027.183594 602 1027.242188 604.367188 C 1003.386719 592.8125 976.929688 582.816406 948.449219 574.496094 Z M 940.1875 673.824219 C 945.042969 641.523438 947.757812 610.550781 948.335938 581.429688 C 976.984375 589.921875 1003.5 600.148438 1027.242188 611.9375 C 1026.953125 641.40625 1023.71875 672.207031 1017.828125 703.410156 C 994.433594 691.910156 968.320312 682.027344 940.1875 673.824219 Z M 930.425781 728.199219 C 934.007812 711.382812 936.953125 694.855469 939.496094 678.621094 C 942.902344 679.601562 946.371094 680.527344 949.777344 681.566406 C 974.15625 689.25 996.570312 698.152344 1016.84375 708.148438 C 1013.667969 724.210938 1009.796875 740.390625 1005.234375 756.511719 C 982.648438 745.53125 957.578125 736 930.425781 728.199219 Z M 918.875 777.023438 C 922.800781 762.117188 926.324219 747.265625 929.445312 732.589844 C 956.535156 740.390625 981.550781 749.925781 1003.964844 760.902344 C 999.746094 775.292969 995.007812 789.679688 989.753906 803.953125 C 968.378906 793.550781 944.578125 784.480469 918.875 777.023438 Z M 974.386719 841.855469 C 965.257812 862.429688 955.207031 882.304688 944.234375 901.433594 C 926.902344 892.9375 907.609375 885.597656 886.753906 879.53125 C 892.9375 862.832031 898.828125 845.613281 904.316406 828.046875 C 909.167969 812.386719 913.675781 796.84375 917.777344 781.472656 C 943.308594 788.8125 966.933594 797.769531 988.191406 808.167969 C 983.859375 819.496094 979.355469 830.761719 974.386719 841.855469 Z M 990.332031 930.671875 C 978.316406 920.671875 964.164062 911.542969 948.277344 903.453125 C 959.253906 884.269531 969.359375 864.335938 978.546875 843.707031 C 983.457031 832.613281 988.019531 821.460938 992.238281 810.191406 C 1012.28125 820.363281 1030.015625 831.804688 1044.917969 844.398438 C 1029.84375 874.042969 1011.53125 902.992188 990.332031 930.671875 Z M 1001.59375 940.898438 C 999.109375 938.414062 996.453125 935.984375 993.738281 933.617188 C 1014.9375 905.996094 1033.308594 877.105469 1048.441406 847.460938 C 1051.445312 850.179688 1054.394531 852.835938 1057.109375 855.609375 C 1067.21875 865.722656 1075.1875 876.066406 1081.082031 886.695312 C 1079.523438 889.414062 1077.960938 892.128906 1076.34375 894.785156 C 1060.457031 920.5 1041.972656 944.363281 1021.234375 966.207031 C 1016.265625 957.480469 1009.738281 949.101562 1001.59375 940.898438 Z M 925.574219 1016.710938 C 924.015625 1015.207031 922.339844 1013.703125 920.664062 1012.261719 C 945.445312 990.246094 968.898438 965.339844 990.097656 938.414062 C 990.386719 938.007812 990.675781 937.546875 990.964844 937.199219 C 993.566406 939.453125 996.050781 941.765625 998.359375 944.074219 C 1006.621094 952.339844 1013.089844 960.890625 1017.941406 969.617188 C 994.546875 993.710938 968.148438 1015.265625 939.207031 1034.101562 C 935.742188 1028.152344 931.175781 1022.371094 925.574219 1016.710938 Z M 836.671875 1073.855469 C 836.324219 1073.511719 836.035156 1073.277344 835.691406 1072.992188 C 863.476562 1057.792969 891.03125 1038.148438 917.253906 1015.265625 C 919.046875 1016.765625 920.78125 1018.328125 922.398438 1019.945312 C 927.769531 1025.378906 932.101562 1030.925781 935.453125 1036.585938 C 907.148438 1054.671875 876.472656 1070.101562 843.660156 1082.699219 C 841.8125 1079.636719 839.503906 1076.6875 836.671875 1073.855469 Z M 560.546875 1015.148438 C 586.832031 1038.089844 614.445312 1057.734375 642.230469 1072.933594 C 641.882812 1073.277344 641.535156 1073.511719 641.25 1073.855469 C 638.417969 1076.6875 636.105469 1079.636719 634.199219 1082.699219 C 601.390625 1070.101562 570.773438 1054.617188 542.46875 1036.585938 C 546.859375 1029.015625 552.980469 1021.851562 560.546875 1015.148438 Z M 486.894531 937.140625 C 487.242188 937.546875 487.53125 938.007812 487.878906 938.414062 C 509.019531 965.339844 532.472656 990.246094 557.257812 1012.203125 C 555.582031 1013.703125 553.90625 1015.207031 552.289062 1016.710938 C 546.683594 1022.316406 542.121094 1028.152344 538.65625 1034.101562 C 509.773438 1015.265625 483.371094 993.652344 459.976562 969.617188 C 466.273438 958.175781 475.402344 947.253906 486.894531 937.140625 Z M 484.179688 933.558594 C 481.464844 935.929688 478.808594 938.414062 476.324219 940.898438 C 468.121094 949.046875 461.652344 957.480469 456.683594 966.089844 C 435.890625 944.308594 417.460938 920.5 401.632812 894.785156 C 399.957031 892.128906 398.457031 889.414062 396.839844 886.695312 C 404.523438 872.828125 415.554688 859.710938 429.476562 847.460938 C 444.667969 877.046875 462.980469 905.9375 484.179688 933.558594 Z M 499.433594 843.707031 C 508.558594 864.277344 518.667969 884.210938 529.644531 903.398438 C 513.757812 911.542969 499.605469 920.671875 487.648438 930.613281 C 466.445312 902.992188 448.078125 874.042969 433 844.398438 C 447.789062 831.976562 465.523438 820.535156 485.742188 810.367188 C 490.015625 821.574219 494.578125 832.667969 499.433594 843.707031 Z M 573.660156 828.046875 C 579.148438 845.613281 585.042969 862.832031 591.164062 879.53125 C 570.3125 885.542969 551.015625 892.9375 533.6875 901.433594 C 522.769531 882.304688 512.660156 862.429688 503.53125 841.855469 C 498.621094 830.820312 494.117188 819.609375 489.84375 808.285156 C 510.925781 798.058594 534.554688 789.042969 560.257812 781.648438 C 564.359375 796.960938 568.75 812.503906 573.660156 828.046875 Z M 645.234375 763.90625 C 649.796875 798.867188 655.113281 832.957031 661.003906 864.914062 C 638.1875 868.03125 616.410156 872.484375 596.015625 878.144531 C 584.523438 847.171875 573.949219 814.179688 564.9375 780.316406 C 589.953125 773.269531 616.871094 767.777344 645.234375 763.90625 Z M 639.34375 713.867188 C 640.902344 729.066406 642.691406 744.320312 644.597656 759.34375 C 616.234375 763.15625 589.085938 768.644531 563.726562 775.753906 C 559.855469 761.132812 556.332031 746.339844 553.15625 731.492188 C 579.957031 723.980469 608.898438 717.96875 639.34375 713.867188 Z M 634.257812 658.050781 C 635.066406 668.625 635.875 678.332031 636.683594 686.882812 C 637.320312 694.335938 638.070312 701.847656 638.878906 709.300781 C 608.378906 713.347656 579.265625 719.300781 552.113281 726.867188 C 548.589844 710.167969 545.472656 693.46875 542.929688 676.769531 C 571.351562 668.738281 602.023438 662.441406 634.257812 658.050781 Z M 633.96875 653.542969 C 601.734375 657.816406 570.945312 664.058594 542.238281 672.148438 C 537.5 640.945312 534.613281 610.03125 534.089844 580.332031 C 563.839844 571.777344 596.015625 565.019531 629.984375 560.394531 C 630.273438 593.96875 632.003906 626.441406 633.96875 653.542969 Z M 736.679688 646.664062 C 702.710938 646.722656 669.496094 648.917969 637.609375 653.023438 C 635.296875 621.066406 633.910156 589.691406 633.679688 559.875 C 666.550781 555.484375 701.09375 553.230469 736.679688 553.113281 Z M 840.3125 653.195312 C 808.480469 649.035156 775.207031 646.78125 741.183594 646.664062 L 741.183594 553.113281 C 776.59375 553.171875 811.195312 555.484375 844.296875 559.816406 C 844.066406 589.691406 842.679688 621.125 840.3125 653.195312 Z M 844.007812 653.65625 C 845.972656 626.5 847.648438 594.023438 847.992188 560.28125 C 881.730469 564.84375 913.90625 571.546875 943.886719 580.15625 C 943.308594 609.972656 940.421875 641.117188 935.683594 672.496094 C 907.03125 664.347656 876.242188 657.992188 844.007812 653.65625 Z M 839.097656 709.300781 C 839.847656 701.847656 840.601562 694.335938 841.292969 686.882812 C 842.042969 678.386719 842.851562 668.796875 843.660156 658.28125 C 875.492188 662.613281 906.164062 669.027344 934.988281 677.289062 C 932.390625 693.816406 929.328125 710.34375 925.804688 726.867188 C 898.65625 719.300781 869.539062 713.347656 839.097656 709.300781 Z M 833.320312 759.34375 C 835.226562 744.261719 837.019531 729.066406 838.636719 713.75 C 868.90625 717.855469 897.902344 723.691406 924.882812 731.261719 C 921.644531 746.226562 918.121094 761.078125 914.253906 775.753906 C 888.835938 768.644531 861.742188 763.15625 833.320312 759.34375 Z M 816.914062 864.914062 C 822.808594 832.902344 828.179688 798.808594 832.742188 763.851562 C 860.933594 767.664062 887.910156 773.09375 913.097656 780.144531 C 904.027344 814.0625 893.398438 847.171875 881.960938 878.203125 C 861.570312 872.484375 839.734375 868.03125 816.914062 864.914062 Z M 841.292969 972.332031 C 826.910156 968.34375 811.542969 965.109375 795.484375 962.855469 C 802.761719 935.351562 809.753906 903.628906 816.164062 869.363281 C 838.695312 872.425781 860.242188 876.816406 880.402344 882.421875 C 868.097656 915.359375 854.753906 945.808594 841.292969 972.332031 Z M 884.214844 988.453125 C 872.601562 982.789062 859.835938 977.878906 846.03125 973.71875 C 859.664062 946.90625 872.949219 916.457031 885.195312 883.75 C 905.816406 889.703125 924.9375 896.984375 942.039062 905.359375 C 924.824219 935.0625 905.414062 962.855469 884.214844 988.453125 Z M 888.316406 990.535156 C 909.457031 964.9375 928.867188 937.085938 946.082031 907.382812 C 961.792969 915.359375 975.714844 924.429688 987.558594 934.253906 C 987.210938 934.714844 986.863281 935.121094 986.519531 935.582031 C 965.375 962.507812 941.921875 987.355469 917.253906 1009.253906 C 908.9375 1002.378906 899.234375 996.082031 888.316406 990.535156 Z M 843.949219 977.820312 C 857.410156 981.808594 869.945312 986.488281 881.210938 991.921875 C 860.585938 1016.421875 838.230469 1038.839844 814.433594 1058.660156 C 809 1056.058594 803.050781 1053.691406 796.699219 1051.726562 C 812.121094 1033.582031 828.238281 1008.15625 843.949219 977.820312 Z M 794.328125 967.304688 C 810.042969 969.441406 825.117188 972.5625 839.214844 976.492188 C 823.210938 1007.523438 807.039062 1032.890625 791.960938 1050.339844 C 784.046875 1048.144531 775.613281 1046.410156 766.832031 1045.253906 C 775.902344 1027.746094 785.257812 1000.761719 794.328125 967.304688 Z M 741.183594 963.605469 C 757.992188 963.664062 774.398438 964.761719 790.167969 966.726562 C 780.984375 1000.242188 771.394531 1027.226562 761.980469 1044.675781 C 755.277344 1043.925781 748.289062 1043.519531 741.183594 1043.464844 Z M 715.941406 1044.675781 C 706.523438 1027.226562 696.933594 1000.242188 687.808594 966.726562 C 703.40625 964.703125 719.808594 963.664062 736.679688 963.550781 L 736.679688 1043.464844 C 729.628906 1043.519531 722.640625 1043.925781 715.941406 1044.675781 Z M 686.015625 1050.339844 C 670.941406 1032.890625 654.765625 1007.523438 638.765625 976.492188 C 652.800781 972.621094 667.820312 969.5 683.648438 967.304688 C 692.660156 1000.820312 702.019531 1027.746094 711.144531 1045.253906 C 702.308594 1046.351562 693.875 1048.085938 686.015625 1050.339844 Z M 663.546875 1058.660156 C 639.746094 1038.839844 617.390625 1016.421875 596.710938 991.976562 C 608.03125 986.605469 620.511719 981.867188 634.027344 977.820312 C 649.738281 1008.15625 665.855469 1033.582031 681.222656 1051.667969 C 674.867188 1053.691406 668.917969 1056.003906 663.546875 1058.660156 Z M 589.605469 990.476562 C 578.746094 996.082031 568.984375 1002.378906 560.664062 1009.199219 C 535.996094 987.296875 512.542969 962.507812 491.460938 935.582031 C 491.054688 935.121094 490.710938 934.65625 490.363281 934.195312 C 502.089844 924.488281 516.070312 915.53125 531.894531 907.5 C 549.109375 937.140625 568.460938 964.9375 589.605469 990.476562 Z M 631.890625 973.71875 C 618.140625 977.820312 605.316406 982.734375 593.765625 988.394531 C 572.5625 962.855469 553.210938 935.121094 535.996094 905.476562 C 552.980469 897.15625 572.101562 889.933594 592.78125 883.921875 C 605.027344 916.511719 618.316406 946.964844 631.890625 973.71875 Z M 682.4375 962.855469 C 666.375 965.109375 651.070312 968.34375 636.683594 972.332031 C 623.226562 945.808594 609.9375 915.359375 597.632812 882.480469 C 617.679688 876.933594 639.167969 872.539062 661.8125 869.421875 C 668.226562 903.628906 675.214844 935.351562 682.4375 962.855469 Z M 736.679688 864.277344 L 736.679688 959.042969 C 719.464844 959.15625 702.710938 960.3125 686.59375 962.335938 C 679.257812 934.832031 672.152344 903.109375 665.683594 868.898438 C 688.386719 865.953125 712.183594 864.394531 736.679688 864.277344 Z M 736.679688 757.667969 L 736.679688 859.769531 C 712.011719 859.828125 687.921875 861.445312 664.875 864.394531 C 658.867188 832.382812 653.496094 798.230469 648.929688 763.386719 C 677.003906 759.746094 706.410156 757.78125 736.679688 757.667969 Z M 736.679688 707.222656 L 736.679688 753.160156 C 706.351562 753.21875 676.773438 755.183594 648.351562 758.824219 C 646.390625 743.800781 644.597656 728.601562 642.980469 713.289062 C 672.960938 709.476562 704.328125 707.339844 736.679688 707.222656 Z M 736.679688 702.714844 C 704.386719 702.773438 672.789062 704.851562 642.519531 708.78125 C 640.785156 691.679688 639.226562 674.515625 637.957031 657.585938 C 669.496094 653.484375 702.597656 651.289062 736.679688 651.171875 Z M 741.183594 702.714844 L 741.183594 651.230469 C 774.804688 651.347656 807.960938 653.65625 839.964844 657.816406 C 838.75 674.691406 837.191406 691.738281 835.402344 708.78125 C 805.132812 704.851562 773.53125 702.773438 741.183594 702.714844 Z M 741.183594 753.160156 L 741.183594 707.222656 C 773.417969 707.339844 804.84375 709.359375 834.996094 713.230469 C 833.378906 728.542969 831.589844 743.800781 829.625 758.878906 C 801.203125 755.183594 771.570312 753.21875 741.183594 753.160156 Z M 741.183594 859.769531 L 741.183594 757.667969 C 771.339844 757.726562 800.800781 759.691406 829.046875 763.328125 C 824.484375 798.230469 819.054688 832.382812 813.101562 864.449219 C 789.996094 861.445312 765.851562 859.828125 741.183594 859.769531 Z M 741.183594 864.277344 C 765.621094 864.394531 789.417969 865.894531 812.292969 868.84375 C 805.824219 903.109375 798.71875 934.832031 791.324219 962.394531 C 775.207031 960.3125 758.398438 959.15625 741.183594 959.042969 Z M 645.753906 1069.753906 C 618.027344 1054.671875 590.296875 1035.140625 564.015625 1012.144531 C 572.101562 1005.613281 581.691406 999.546875 592.550781 994.058594 C 613.171875 1018.558594 635.472656 1040.921875 659.15625 1060.914062 C 654.1875 1063.570312 649.683594 1066.519531 645.753906 1069.753906 Z M 818.765625 1060.914062 C 842.507812 1040.976562 864.804688 1018.558594 885.367188 994.058594 C 896.113281 999.546875 905.644531 1005.613281 913.789062 1012.316406 C 887.507812 1035.199219 859.894531 1054.730469 832.164062 1069.8125 C 828.238281 1066.578125 823.789062 1063.628906 818.765625 1060.914062 Z M 786.011719 1160.707031 C 781.445312 1159.664062 777.058594 1157.296875 772.839844 1153.714844 C 780.292969 1152.5 787.339844 1150.882812 793.984375 1148.976562 C 802.648438 1152.441406 811.140625 1154.582031 820.265625 1155.390625 C 809 1157.644531 797.507812 1159.375 786.011719 1160.707031 Z M 831.820312 1121.125 C 814.605469 1138.402344 778.097656 1149.554688 738.929688 1149.554688 C 699.765625 1149.554688 663.316406 1138.402344 646.042969 1121.125 C 639.34375 1114.421875 635.933594 1107.253906 635.933594 1099.917969 C 635.933594 1072.46875 682.148438 1050.164062 738.929688 1050.164062 C 778.097656 1050.164062 814.605469 1061.375 831.820312 1078.652344 C 838.578125 1085.355469 841.984375 1092.519531 841.984375 1099.917969 C 841.984375 1107.253906 838.578125 1114.421875 831.820312 1121.125 Z M 384.246094 931.710938 C 384.476562 917.84375 388 904.378906 394.414062 891.378906 C 395.511719 893.34375 396.609375 895.25 397.820312 897.214844 C 414.054688 923.5625 433.058594 948.003906 454.433594 970.367188 C 449.289062 980.539062 446.34375 990.996094 445.59375 1001.6875 C 423.46875 981.867188 402.5 958.695312 384.246094 931.710938 Z M 449.867188 1005.5 C 450.15625 994.578125 452.871094 984.003906 457.78125 973.835938 C 481.292969 997.757812 507.632812 1019.308594 536.519531 1038.089844 C 532.878906 1045.371094 530.855469 1052.824219 530.335938 1060.453125 C 503.648438 1046.351562 476.035156 1028.265625 449.867188 1005.5 Z M 555.523438 1108.179688 C 550.902344 1103.617188 547.148438 1098.878906 544.085938 1094.082031 C 574.875 1105.234375 605.722656 1112.109375 633.21875 1115.230469 C 634.777344 1118.175781 636.742188 1120.949219 639.167969 1123.722656 C 614.214844 1124.820312 587.0625 1120.949219 560.78125 1113.09375 C 558.988281 1111.472656 557.140625 1109.855469 555.523438 1108.179688 Z M 621.953125 1146.492188 C 617.5625 1144.988281 613.230469 1143.371094 609.074219 1141.695312 C 623.570312 1143.3125 638.53125 1142.386719 660.945312 1139.789062 C 665.914062 1142.386719 671.285156 1144.699219 677.121094 1146.664062 C 664.816406 1150.824219 652.511719 1152.09375 637.492188 1150.707031 C 637.4375 1150.707031 637.320312 1150.707031 637.320312 1150.707031 C 632.179688 1149.4375 627.039062 1147.992188 621.953125 1146.492188 Z M 855.90625 1146.492188 C 850.824219 1147.992188 845.742188 1149.378906 840.601562 1150.707031 C 840.542969 1150.707031 840.542969 1150.707031 840.484375 1150.707031 C 825.464844 1152.09375 813.277344 1150.824219 801.03125 1146.722656 C 806.863281 1144.699219 812.292969 1142.386719 817.203125 1139.84375 C 839.445312 1142.386719 854.347656 1143.3125 868.789062 1141.695312 C 864.628906 1143.371094 860.296875 1144.988281 855.90625 1146.492188 Z M 917.082031 1113.09375 C 890.800781 1120.949219 863.707031 1124.820312 838.867188 1123.722656 C 841.234375 1120.949219 843.199219 1118.175781 844.816406 1115.230469 C 872.199219 1112.109375 903.046875 1105.292969 933.835938 1094.140625 C 930.714844 1098.878906 926.960938 1103.617188 922.398438 1108.179688 C 920.722656 1109.855469 918.875 1111.472656 917.082031 1113.09375 Z M 947.527344 1060.507812 C 947.0625 1052.824219 944.984375 1045.429688 941.34375 1038.089844 C 970.285156 1019.308594 996.625 997.8125 1020.136719 973.835938 C 1025.164062 984.121094 1027.761719 994.75 1027.992188 1005.558594 C 1001.824219 1028.265625 974.214844 1046.410156 947.527344 1060.507812 Z M 1032.328125 1001.742188 C 1031.574219 991.054688 1028.628906 980.59375 1023.429688 970.425781 C 1044.917969 948.003906 1063.925781 923.5625 1080.15625 897.214844 C 1081.3125 895.25 1082.410156 893.34375 1083.566406 891.378906 C 1090.035156 904.496094 1093.441406 918.015625 1093.617188 931.824219 C 1075.363281 958.753906 1054.449219 981.925781 1032.328125 1001.742188 Z M 1097.832031 925.296875 C 1096.734375 912.121094 1092.867188 899.292969 1086.339844 886.753906 C 1093.386719 874.445312 1099.855469 861.964844 1105.515625 849.253906 C 1112.621094 863.527344 1116.261719 878.085938 1116.433594 893.054688 C 1110.65625 904.320312 1104.417969 915.070312 1097.832031 925.296875 Z M 1082.640625 744.839844 C 1065.542969 730.335938 1045.09375 717.160156 1022.042969 705.488281 C 1027.992188 674.402344 1031.285156 643.660156 1031.691406 614.132812 C 1055.664062 626.324219 1076.632812 640.195312 1094.078125 655.390625 C 1094.078125 682.835938 1090.726562 711.09375 1083.855469 739.984375 C 1083.507812 741.601562 1083.046875 743.222656 1082.640625 744.839844 Z M 881.730469 378.378906 C 894.035156 389.414062 904.488281 402.992188 913.210938 419 C 888.140625 412.066406 861.339844 406.691406 833.378906 402.9375 C 829.277344 388.199219 824.136719 375.316406 817.78125 365.085938 C 840.136719 368.207031 861.570312 372.65625 881.730469 378.378906 Z M 596.015625 378.550781 C 616.175781 372.832031 637.722656 368.324219 660.136719 365.144531 C 653.785156 375.375 648.699219 388.257812 644.597656 402.9375 C 616.640625 406.75 589.835938 412.125 564.765625 419 C 573.371094 403.167969 583.769531 389.585938 596.015625 378.550781 Z M 394.066406 739.984375 C 387.25 711.09375 383.898438 682.78125 383.839844 655.332031 C 401.113281 640.367188 422.082031 626.558594 446.230469 614.308594 C 446.691406 643.601562 449.925781 673.996094 455.816406 704.851562 C 432.710938 716.46875 412.261719 729.527344 395.105469 743.972656 C 394.757812 742.644531 394.414062 741.316406 394.066406 739.984375 Z M 343.117188 846.710938 C 343.117188 830.820312 346.984375 815.335938 354.324219 800.542969 C 358.65625 815.105469 363.96875 829.550781 370.09375 843.765625 C 362.929688 856.996094 358.714844 870.632812 357.382812 884.5 C 352.183594 873.636719 347.449219 862.3125 343.230469 850.46875 C 343.171875 849.253906 343.117188 847.980469 343.117188 846.710938 Z M 364.488281 917.496094 C 363.277344 912.871094 362.46875 908.25 362.003906 903.570312 C 367.550781 913.796875 373.441406 923.621094 379.683594 932.921875 C 379.683594 932.980469 379.683594 933.039062 379.683594 933.097656 C 379.683594 939.742188 380.433594 946.328125 381.878906 952.859375 C 375.464844 941.359375 369.6875 929.574219 364.488281 917.496094 Z M 411.050781 997.640625 C 410.761719 997.351562 410.472656 997.121094 410.125 997.003906 C 404 988.683594 398.28125 980.132812 392.851562 971.40625 C 388.117188 961.0625 385.285156 950.488281 384.476562 939.800781 C 402.730469 965.800781 423.46875 988.222656 445.304688 1007.40625 C 445.363281 1017.980469 447.671875 1028.441406 452.121094 1038.609375 C 436.984375 1026.589844 423.007812 1013.011719 411.050781 997.640625 Z M 482.21875 1072.527344 C 476.265625 1066.867188 471.070312 1061.027344 466.734375 1055.019531 C 488.976562 1070.101562 513.007812 1082.179688 537.328125 1091.539062 C 540.675781 1097.835938 545.183594 1103.90625 550.902344 1109.855469 C 532.300781 1103.441406 514.449219 1095.0625 498.335938 1085.007812 C 492.902344 1080.964844 487.53125 1076.863281 482.21875 1072.527344 Z M 995.703125 1072.527344 C 990.273438 1076.917969 984.726562 1081.195312 979.125 1085.296875 C 963.066406 1095.351562 945.214844 1103.617188 926.730469 1109.972656 C 932.390625 1104.136719 936.953125 1097.953125 940.421875 1091.597656 C 964.738281 1082.292969 988.769531 1070.214844 1011.011719 1055.136719 C 1006.734375 1061.085938 1001.59375 1066.921875 995.703125 1072.527344 Z M 1067.738281 997.003906 C 1067.449219 997.121094 1067.160156 997.351562 1066.929688 997.640625 C 1054.914062 1013.070312 1040.875 1026.648438 1025.742188 1038.726562 C 1030.1875 1028.496094 1032.5 1018.039062 1032.558594 1007.464844 C 1054.394531 988.28125 1075.132812 965.859375 1093.386719 939.972656 C 1092.578125 950.664062 1089.6875 961.179688 1085.007812 971.523438 C 1079.578125 980.191406 1073.859375 988.683594 1067.738281 997.003906 Z M 1095.984375 952.859375 C 1097.429688 946.386719 1098.179688 939.742188 1098.179688 933.097656 C 1104.417969 923.734375 1110.3125 914.027344 1115.855469 903.742188 C 1115.394531 908.367188 1114.585938 912.929688 1113.429688 917.554688 C 1108.171875 929.574219 1102.398438 941.417969 1095.984375 952.859375 Z M 1111.351562 588.707031 C 1103.785156 578.886719 1094.65625 569.46875 1084.316406 560.453125 C 1080.734375 549.300781 1076.519531 538.320312 1071.664062 527.632812 C 1079.117188 534.796875 1085.761719 542.195312 1091.421875 549.9375 C 1098.816406 562.476562 1105.402344 575.476562 1111.351562 588.707031 Z M 986.34375 445.636719 C 965.894531 435.988281 943.367188 427.609375 919.21875 420.675781 C 911.363281 405.421875 902.003906 392.246094 891.085938 381.035156 C 907.148438 386.003906 922.339844 391.839844 936.433594 398.371094 C 941.921875 401.433594 947.351562 404.554688 952.722656 407.90625 C 965.433594 418.304688 976.699219 430.960938 986.34375 445.636719 Z M 800.683594 352.085938 C 803.28125 354.167969 805.710938 356.535156 808.078125 359.308594 C 786.414062 356.710938 764.058594 355.324219 741.183594 355.207031 L 741.183594 347.523438 C 761.285156 347.578125 781.160156 349.140625 800.683594 352.085938 Z M 736.679688 347.464844 L 736.679688 355.207031 C 713.917969 355.324219 691.503906 356.765625 669.84375 359.367188 C 672.152344 356.59375 674.636719 354.167969 677.238281 352.085938 C 696.644531 349.140625 716.519531 347.578125 736.679688 347.464844 Z M 386.789062 549.707031 C 392.390625 542.136719 398.859375 534.796875 406.195312 527.804688 C 401.285156 538.609375 397.070312 549.707031 393.488281 561.03125 C 382.976562 570.101562 373.90625 579.695312 366.339844 589.519531 C 372.460938 575.824219 379.277344 562.53125 386.789062 549.707031 Z M 331.160156 747.726562 C 331.910156 736.34375 334.566406 725.191406 339.074219 714.328125 C 340.574219 741.082031 345.136719 767.777344 352.472656 794.070312 C 344.964844 807.878906 340.515625 822.09375 339.128906 836.714844 C 333.816406 810.25 331.042969 783.035156 331.042969 755.472656 C 331.042969 752.871094 331.101562 750.269531 331.160156 747.726562 Z M 324.109375 754.488281 C 324.109375 754.777344 324.167969 755.007812 324.285156 755.296875 C 324.285156 755.355469 324.226562 755.414062 324.226562 755.472656 C 324.226562 866.242188 367.378906 970.425781 445.710938 1048.777344 C 524.039062 1127.132812 628.136719 1170.238281 738.929688 1170.238281 C 967.453125 1170.238281 1153.40625 984.351562 1153.636719 755.816406 C 1153.808594 755.414062 1153.925781 754.953125 1153.925781 754.488281 C 1153.925781 750.847656 1153.695312 747.265625 1153.347656 743.683594 C 1150.402344 637.304688 1107.710938 537.6875 1032.152344 462.164062 C 953.820312 383.808594 849.726562 340.644531 738.929688 340.644531 C 628.191406 340.644531 524.039062 383.808594 445.710938 462.164062 C 369.6875 538.207031 326.941406 638.519531 324.515625 745.707031 C 324.226562 748.652344 324.109375 751.542969 324.109375 754.488281 " fill-opacity="1" fill-rule="nonzero"/><g clip-path="url(#df099ee3d4)"><path fill="#ffffff" d="M 1177.957031 836.253906 C 1171.660156 836.773438 1167.617188 840.992188 1168.886719 845.613281 C 1170.15625 850.292969 1176.28125 853.644531 1182.578125 853.125 C 1226.59375 849.425781 1261.949219 842.78125 1286.265625 833.304688 C 1312.089844 823.25 1326.242188 809.84375 1326.242188 793.144531 C 1326.242188 758.476562 1260.15625 718.257812 1153.40625 681.335938 C 1050.347656 645.683594 908.1875 611.9375 751.351562 588.652344 C 672.09375 576.921875 596.769531 568.945312 528.316406 564.554688 C 429.1875 558.199219 344.269531 559.46875 282.980469 567.792969 C 217.9375 576.632812 178.25 594.023438 174.148438 619.566406 C 173.917969 621.066406 173.804688 622.570312 173.804688 624.015625 C 173.804688 638.402344 184.546875 653.425781 204.417969 668.625 C 223.539062 683.125 251.382812 698.09375 286.390625 712.886719 C 292.167969 715.3125 299.15625 714.097656 301.988281 710.054688 C 304.816406 706.066406 302.449219 700.867188 296.671875 698.382812 C 263.804688 684.511719 237.867188 670.644531 220.59375 657.472656 C 205.34375 645.855469 197.082031 635.050781 197.082031 625.515625 C 197.082031 624.59375 197.199219 623.726562 197.3125 622.972656 C 200.203125 605.003906 233.648438 592.003906 289.046875 584.492188 C 348.199219 576.402344 431.035156 575.304688 528.316406 581.484375 C 596.015625 585.820312 670.535156 593.734375 748.695312 605.351562 C 903.621094 628.289062 1043.765625 661.515625 1145.027344 696.53125 C 1242.539062 730.277344 1302.902344 764.660156 1302.902344 791.644531 C 1302.902344 801.988281 1292.679688 810.886719 1273.964844 818.167969 C 1251.953125 826.71875 1219.199219 832.785156 1177.957031 836.253906 " fill-opacity="1" fill-rule="nonzero"/></g><path fill="#ffffff" d="M 1167.152344 331.167969 L 1167.730469 331.167969 C 1171.660156 382.886719 1212.902344 424.199219 1264.605469 428.070312 L 1264.605469 428.707031 C 1212.902344 432.578125 1171.660156 473.894531 1167.730469 525.609375 L 1167.152344 525.609375 C 1163.226562 473.894531 1121.980469 432.578125 1070.277344 428.707031 L 1070.277344 428.070312 C 1121.980469 424.199219 1163.226562 382.886719 1167.152344 331.167969 " fill-opacity="1" fill-rule="evenodd"/><path fill="#ffffff" d="M 1266.164062 509.605469 L 1266.453125 509.605469 C 1268.070312 531.617188 1285.632812 549.183594 1307.582031 550.804688 L 1307.582031 551.09375 C 1285.632812 552.710938 1268.070312 570.277344 1266.453125 592.234375 L 1266.164062 592.234375 C 1264.546875 570.277344 1246.984375 552.710938 1224.976562 551.09375 L 1224.976562 550.804688 C 1246.984375 549.183594 1264.546875 531.617188 1266.164062 509.605469 " fill-opacity="1" fill-rule="evenodd"/><path stroke-linecap="butt" transform="matrix(2.99366, -0.194927, 0.194927, 2.99366, 483.654592, 594.309649)" fill="none" stroke-linejoin="miter" d="M 2.857444 54.999458 C 2.482928 54.999864 2.14605 54.863103 1.845427 54.59039 C 1.54418 54.307197 1.394611 53.979076 1.39412 53.60586 L 1.394738 11.613513 C 1.394017 11.203746 1.536061 10.865907 1.818184 10.601127 C 2.100223 10.337646 2.428542 10.205052 2.801674 10.205861 L 16.74522 10.205602 C 17.154987 10.204881 17.497316 10.338083 17.769862 10.601139 C 18.052719 10.866172 18.193899 11.20288 18.19462 11.612647 L 18.193835 23.928988 C 18.194241 24.303504 18.334715 24.631032 18.61777 24.91304 C 18.900035 25.187168 19.227817 25.323337 19.602248 25.32423 C 20.012015 25.32351 20.344487 25.187273 20.599747 24.914219 C 20.86348 24.631278 20.995751 24.303242 20.996645 23.92881 L 20.996046 11.613684 C 20.996709 11.202702 21.13347 10.865824 21.406414 10.601751 C 21.688537 10.33697 22.016772 10.205676 22.389989 10.205186 L 36.333535 10.204926 C 36.743217 10.205505 37.089528 10.337661 37.372469 10.601395 C 37.655326 10.866427 37.796507 11.203135 37.795928 11.612818 L 37.796609 53.605249 C 37.795716 53.97968 37.663445 54.307717 37.399796 54.589358 C 37.135356 54.863119 36.797603 55.000318 36.38792 54.999739 L 22.445674 55.000083 C 22.080338 54.999782 21.748658 54.863359 21.446819 54.589261 C 21.146787 54.307452 20.995919 53.979247 20.996727 53.606116 L 20.996558 41.344515 C 20.995837 40.934748 20.864429 40.588238 20.599733 40.304815 C 20.344048 40.023284 20.011406 39.881579 19.601724 39.881001 C 19.228507 39.881491 18.900188 40.014084 18.618149 40.277566 C 18.335318 40.533166 18.193614 40.865808 18.194334 41.275574 L 18.193918 53.606293 C 18.194408 53.97951 18.062137 54.307546 17.797105 54.590402 C 17.541844 54.863456 17.209373 54.999693 16.799606 55.000414 Z M 2.857444 54.999458 " stroke="#231f20" stroke-width="11.269819" stroke-opacity="1" stroke-miterlimit="4"/><path stroke-linecap="butt" transform="matrix(2.998899, -0.0812669, 0.0812669, 2.998899, 604.805381, 586.493185)" fill="none" stroke-linejoin="miter" d="M 12.821874 55 C 10.616633 55.000158 8.652682 54.507974 6.930022 53.523447 C 5.216719 52.530056 3.863566 51.176498 2.870527 49.464073 C 1.886881 47.741482 1.394311 45.7782 1.394153 43.572959 L 1.394744 21.63263 C 1.394586 19.427389 1.886629 17.468645 2.870908 15.755095 C 3.863244 14.032647 5.216803 12.679493 6.930282 11.695601 C 8.653155 10.701542 10.616544 10.205067 12.821785 10.204909 L 26.36843 10.204686 C 28.573635 10.205829 30.533575 10.701812 32.245576 11.695168 C 33.968237 12.679694 35.32139 14.033253 36.306372 15.754577 C 37.299376 17.468304 37.795957 19.427787 37.796115 21.633028 L 37.79556 43.572056 C 37.795718 45.777297 37.299629 47.741141 36.305991 49.463555 C 35.321712 51.177104 33.968153 52.530257 32.246582 53.524351 C 30.533102 54.508244 28.57376 54.999618 26.368519 54.999777 Z M 19.601574 42.122938 C 20.011862 42.123636 20.34526 41.981574 20.600395 41.699319 C 20.864642 41.417311 20.995846 41.093924 20.996611 40.729227 L 20.996406 24.490188 C 20.995802 24.079865 20.864258 23.742845 20.599206 23.477755 C 20.344532 23.214249 20.012069 23.081496 19.601746 23.0821 C 19.227903 23.082389 18.899993 23.21418 18.617983 23.478773 C 18.334706 23.74203 18.194002 24.079488 18.194606 24.489811 L 18.19351 40.728815 C 18.194047 41.093547 18.33509 41.416496 18.617905 41.699001 C 18.900721 41.981505 19.227731 42.123228 19.601574 42.122938 Z M 19.601574 42.122938 " stroke="#231f20" stroke-width="11.269819" stroke-opacity="1" stroke-miterlimit="4"/><path stroke-linecap="butt" transform="matrix(2.999381, 0.0609534, -0.0609534, 2.999381, 727.132051, 582.59453)" fill="none" stroke-linejoin="miter" d="M 2.8019 54.99974 C 2.428121 54.999522 2.101059 54.86291 1.818111 54.589956 C 1.534978 54.30789 1.394171 53.979954 1.394389 53.606175 L 1.394047 11.613137 C 1.394827 11.20288 1.544272 10.866441 1.844933 10.601163 C 2.145622 10.337186 2.482856 10.205307 2.856635 10.205525 L 16.799603 10.204787 C 17.20986 10.205566 17.542023 10.336865 17.797448 10.601261 C 18.061985 10.865472 18.193864 11.202706 18.194387 11.612936 L 18.194529 36.805635 C 18.19431 37.179414 18.335117 37.50735 18.618277 37.790718 C 18.899923 38.063698 19.228287 38.200284 19.602066 38.200502 C 20.012296 38.199979 20.344217 38.062999 20.600459 37.790809 C 20.864299 37.508046 20.995678 37.179788 20.995896 36.806009 L 20.995844 11.489585 C 20.996089 11.117107 21.133125 10.810875 21.405728 10.574818 C 21.688535 10.328136 22.016842 10.205555 22.390621 10.205773 L 36.388292 10.205225 C 36.762071 10.205443 37.090144 10.327709 37.372563 10.574626 C 37.65477 10.811128 37.796429 11.116907 37.796211 11.490687 L 37.796235 36.805809 C 37.796017 37.179588 37.932918 37.507603 38.205637 37.789881 C 38.488612 38.064136 38.816975 38.200722 39.190728 38.199638 C 39.600985 38.200418 39.938113 38.063331 40.202139 37.789681 C 40.466006 37.50822 40.598686 37.179936 40.597603 36.806183 L 40.598763 11.613458 C 40.59824 11.203227 40.743753 10.865566 41.035329 10.601775 C 41.336017 10.337798 41.673251 10.205919 42.047004 10.204836 L 55.989998 10.205399 C 56.400229 10.204876 56.732419 10.337477 56.987843 10.601873 C 57.252381 10.866084 57.38426 11.203318 57.384782 11.613548 L 57.383796 53.605311 C 57.38488 53.979064 57.243087 54.307534 56.960994 54.589365 C 56.686554 54.863227 56.345521 55.000393 55.935264 54.999613 L 32.192093 55.000252 C 31.818314 55.000034 31.489659 54.849128 31.207457 54.54881 C 30.934368 54.248307 30.797361 53.915084 30.797765 53.550418 L 30.796687 46.31978 C 30.797466 45.909523 30.665693 45.577497 30.401341 45.322398 C 30.136803 45.058187 29.799406 44.925692 29.389176 44.926215 C 29.015397 44.925997 28.687275 45.057691 28.404839 45.322598 C 28.131304 45.576906 27.994824 45.910477 27.99532 46.319406 L 27.994931 53.606074 C 27.994713 53.979854 27.854196 54.306995 27.570828 54.590155 C 27.297663 54.862688 26.956629 54.999854 26.546399 55.000377 Z M 2.8019 54.99974 " stroke="#231f20" stroke-width="11.269819" stroke-opacity="1" stroke-miterlimit="4"/><path stroke-linecap="butt" transform="matrix(2.993394, 0.198982, -0.198982, 2.993394, 908.074635, 587.152849)" fill="none" stroke-linejoin="miter" d="M 2.802486 55.000173 C 2.42797 55.000274 2.100425 54.862843 1.818638 54.589264 C 1.535034 54.307976 1.394437 53.979338 1.394422 53.606121 L 1.394259 11.612614 C 1.394425 11.202847 1.544244 10.865343 1.845103 10.601317 C 2.145961 10.337291 2.482999 10.205271 2.857515 10.205169 L 16.799658 10.204902 C 17.209426 10.205068 17.542427 10.346051 17.797449 10.629239 C 18.061565 10.911823 18.19419 11.257955 18.194025 11.667722 L 18.194244 38.487185 C 18.194258 38.860402 18.34395 39.188435 18.644617 39.471199 C 18.945979 39.744782 19.282618 39.881609 19.657134 39.881507 L 33.599278 39.88124 C 34.009045 39.881406 34.342741 40.013209 34.597853 40.278121 C 34.861455 40.533335 34.993216 40.866475 34.99435 41.276156 L 34.993108 53.605473 C 34.993209 53.979988 34.860974 54.307188 34.597876 54.589584 C 34.342054 54.863666 34.009259 55.000624 33.599492 55.000459 Z M 2.802486 55.000173 " stroke="#231f20" stroke-width="11.269819" stroke-opacity="1" stroke-miterlimit="4"/><g fill="#ffffff" fill-opacity="1"><g transform="translate(494.375577, 758.960958)"><g><path d="M 8.546875 -0.5625 C 7.429688 -0.488281 6.398438 -0.835938 5.453125 -1.609375 C 4.503906 -2.390625 3.992188 -3.335938 3.921875 -4.453125 L -4.265625 -130.15625 C -4.347656 -131.394531 -3.992188 -132.429688 -3.203125 -133.265625 C -2.421875 -134.109375 -1.46875 -134.566406 -0.34375 -134.640625 L 41.375 -137.359375 C 42.613281 -137.441406 43.675781 -137.117188 44.5625 -136.390625 C 45.457031 -135.660156 45.945312 -134.675781 46.03125 -133.4375 L 48.421875 -96.5625 C 48.492188 -95.457031 48.972656 -94.507812 49.859375 -93.71875 C 50.753906 -92.9375 51.765625 -92.582031 52.890625 -92.65625 C 54.117188 -92.738281 55.09375 -93.222656 55.8125 -94.109375 C 56.53125 -95.003906 56.851562 -96.003906 56.78125 -97.109375 L 54.390625 -133.984375 C 54.304688 -135.222656 54.660156 -136.257812 55.453125 -137.09375 C 56.242188 -137.925781 57.195312 -138.378906 58.3125 -138.453125 L 100.046875 -141.171875 C 101.273438 -141.253906 102.332031 -140.929688 103.21875 -140.203125 C 104.113281 -139.472656 104.601562 -138.488281 104.6875 -137.25 L 112.875 -11.546875 C 112.945312 -10.429688 112.617188 -9.429688 111.890625 -8.546875 C 111.160156 -7.660156 110.179688 -7.175781 108.953125 -7.09375 L 67.21875 -4.375 C 66.09375 -4.300781 65.054688 -4.65625 64.109375 -5.4375 C 63.160156 -6.21875 62.648438 -7.164062 62.578125 -8.28125 L 60.1875 -44.984375 C 60.101562 -46.210938 59.644531 -47.222656 58.8125 -48.015625 C 57.976562 -48.804688 56.945312 -49.160156 55.71875 -49.078125 C 54.59375 -49.003906 53.640625 -48.546875 52.859375 -47.703125 C 52.078125 -46.867188 51.726562 -45.835938 51.8125 -44.609375 L 54.21875 -7.734375 C 54.289062 -6.617188 53.957031 -5.613281 53.21875 -4.71875 C 52.488281 -3.832031 51.507812 -3.351562 50.28125 -3.28125 Z M 8.546875 -0.5625 "/></g></g></g><g fill="#ffffff" fill-opacity="1"><g transform="translate(609.275061, 751.43262)"><g><path d="M 38.453125 -1.046875 C 31.847656 -0.867188 25.929688 -2.191406 20.703125 -5.015625 C 15.484375 -7.847656 11.316406 -11.796875 8.203125 -16.859375 C 5.097656 -21.921875 3.457031 -27.753906 3.28125 -34.359375 L 1.484375 -100.1875 C 1.304688 -106.78125 2.632812 -112.691406 5.46875 -117.921875 C 8.300781 -123.160156 12.25 -127.332031 17.3125 -130.4375 C 22.375 -133.550781 28.207031 -135.195312 34.8125 -135.375 L 75.4375 -136.46875 C 82.050781 -136.644531 87.972656 -135.316406 93.203125 -132.484375 C 98.429688 -129.660156 102.59375 -125.710938 105.6875 -120.640625 C 108.789062 -115.578125 110.429688 -109.75 110.609375 -103.15625 L 112.40625 -37.328125 C 112.582031 -30.722656 111.257812 -24.804688 108.4375 -19.578125 C 105.613281 -14.347656 101.664062 -10.175781 96.59375 -7.0625 C 91.53125 -3.957031 85.691406 -2.316406 79.078125 -2.140625 Z M 57.734375 -40.21875 C 58.960938 -40.25 59.953125 -40.691406 60.703125 -41.546875 C 61.460938 -42.410156 61.828125 -43.398438 61.796875 -44.515625 L 60.46875 -93.21875 C 60.4375 -94.445312 60.019531 -95.441406 59.21875 -96.203125 C 58.425781 -96.972656 57.414062 -97.34375 56.1875 -97.3125 C 55.0625 -97.28125 54.085938 -96.859375 53.265625 -96.046875 C 52.453125 -95.242188 52.0625 -94.226562 52.09375 -93 L 53.421875 -44.296875 C 53.453125 -43.179688 53.894531 -42.210938 54.75 -41.390625 C 55.613281 -40.578125 56.609375 -40.1875 57.734375 -40.21875 Z M 57.734375 -40.21875 "/></g></g></g><g fill="#ffffff" fill-opacity="1"><g transform="translate(723.779612, 747.560464)"><g><path d="M 8.40625 0.171875 C 7.28125 0.148438 6.304688 -0.285156 5.484375 -1.140625 C 4.660156 -2.003906 4.257812 -3 4.28125 -4.125 L 6.84375 -130.0625 C 6.875 -131.300781 7.34375 -132.300781 8.25 -133.0625 C 9.164062 -133.820312 10.179688 -134.191406 11.296875 -134.171875 L 53.109375 -133.328125 C 54.335938 -133.296875 55.335938 -132.878906 56.109375 -132.078125 C 56.878906 -131.285156 57.25 -130.269531 57.21875 -129.03125 L 55.6875 -53.46875 C 55.664062 -52.34375 56.0625 -51.351562 56.875 -50.5 C 57.695312 -49.644531 58.671875 -49.207031 59.796875 -49.1875 C 61.023438 -49.15625 62.039062 -49.550781 62.84375 -50.375 C 63.644531 -51.195312 64.054688 -52.171875 64.078125 -53.296875 L 65.625 -129.203125 C 65.644531 -130.316406 66.082031 -131.226562 66.9375 -131.9375 C 67.800781 -132.65625 68.789062 -133.003906 69.90625 -132.984375 L 111.90625 -132.125 C 113.007812 -132.101562 113.972656 -131.71875 114.796875 -130.96875 C 115.617188 -130.226562 116.019531 -129.300781 116 -128.1875 L 114.453125 -52.28125 C 114.429688 -51.15625 114.832031 -50.160156 115.65625 -49.296875 C 116.476562 -48.441406 117.445312 -48.003906 118.5625 -47.984375 C 119.789062 -47.960938 120.804688 -48.363281 121.609375 -49.1875 C 122.421875 -50.007812 122.835938 -50.984375 122.859375 -52.109375 L 124.390625 -127.671875 C 124.421875 -128.910156 124.890625 -129.910156 125.796875 -130.671875 C 126.710938 -131.429688 127.726562 -131.800781 128.84375 -131.78125 L 170.671875 -130.9375 C 171.898438 -130.90625 172.898438 -130.488281 173.671875 -129.6875 C 174.441406 -128.894531 174.8125 -127.878906 174.78125 -126.640625 L 172.21875 -0.703125 C 172.195312 0.421875 171.757812 1.394531 170.90625 2.21875 C 170.050781 3.039062 169.003906 3.4375 167.765625 3.40625 L 96.5625 1.96875 C 95.445312 1.9375 94.476562 1.460938 93.65625 0.546875 C 92.832031 -0.359375 92.4375 -1.375 92.46875 -2.5 L 92.90625 -24.15625 C 92.925781 -25.394531 92.550781 -26.410156 91.78125 -27.203125 C 91.007812 -28.003906 90.007812 -28.414062 88.78125 -28.4375 C 87.65625 -28.46875 86.664062 -28.097656 85.8125 -27.328125 C 84.957031 -26.566406 84.519531 -25.566406 84.5 -24.328125 L 84.046875 -2.5 C 84.023438 -1.375 83.585938 -0.398438 82.734375 0.421875 C 81.878906 1.242188 80.835938 1.640625 79.609375 1.609375 Z M 8.40625 0.171875 "/></g></g></g><g fill="#ffffff" fill-opacity="1"><g transform="translate(897.130621, 751.789493)"><g><path d="M 8.390625 0.5625 C 7.265625 0.488281 6.3125 0.00390625 5.53125 -0.890625 C 4.75 -1.785156 4.394531 -2.789062 4.46875 -3.90625 L 12.8125 -129.609375 C 12.894531 -130.835938 13.410156 -131.8125 14.359375 -132.53125 C 15.304688 -133.257812 16.335938 -133.585938 17.453125 -133.515625 L 59.1875 -130.734375 C 60.414062 -130.648438 61.394531 -130.160156 62.125 -129.265625 C 62.851562 -128.378906 63.175781 -127.328125 63.09375 -126.109375 L 57.75 -45.8125 C 57.675781 -44.695312 58.0625 -43.691406 58.90625 -42.796875 C 59.75 -41.910156 60.726562 -41.429688 61.84375 -41.359375 L 103.578125 -38.578125 C 104.796875 -38.492188 105.769531 -38.03125 106.5 -37.1875 C 107.226562 -36.351562 107.554688 -35.320312 107.484375 -34.09375 L 105.03125 2.78125 C 104.957031 3.894531 104.5 4.84375 103.65625 5.625 C 102.8125 6.414062 101.78125 6.769531 100.5625 6.6875 Z M 8.390625 0.5625 "/></g></g></g><path stroke-linecap="butt" transform="matrix(4.285101, -0.497483, 0.497483, 4.285101, 376.228067, 777.913161)" fill="none" stroke-linejoin="miter" d="M 22.562737 12.999916 L 17.858944 12.999866 L 17.859327 5.851231 L 13.656541 12.999684 L 10.14872 12.99992 L 5.952995 5.851834 L 5.953617 12.999674 L 1.249824 12.999624 L 1.249598 1.788878 L 6.835769 1.789271 L 11.906246 9.796443 L 16.96904 1.788842 L 22.562511 1.78917 Z M 22.562737 12.999916 " stroke="#231f20" stroke-width="1.9" stroke-opacity="1" stroke-miterlimit="4"/><path stroke-linecap="butt" transform="matrix(4.299393, -0.353264, 0.353264, 4.299393, 479.676736, 766.105762)" fill="none" stroke-linejoin="miter" d="M 18.828121 13.000248 L 14.062729 13.000284 L 13.007974 11.163736 L 5.937529 11.164264 L 4.88267 13.0001 L 0.117279 13.000136 L 7.28866 1.7972 L 11.656102 1.797174 Z M 11.421458 8.390382 L 9.476499 4.992471 L 7.523705 8.390841 Z M 11.421458 8.390382 " stroke="#231f20" stroke-width="1.9" stroke-opacity="1" stroke-miterlimit="4"/><path stroke-linecap="butt" transform="matrix(4.307661, -0.231575, 0.231575, 4.307661, 562.306569, 759.390923)" fill="none" stroke-linejoin="miter" d="M 8.476408 13.242604 C 5.706101 13.242393 3.666503 12.672085 2.35947 11.530873 C 1.203157 10.52109 0.625075 9.146113 0.625222 7.405944 C 0.624709 5.661205 1.202934 4.284007 2.359043 3.273397 C 3.666308 2.133076 5.705571 1.562594 8.476782 1.562853 C 10.054662 1.562437 11.367251 1.740005 12.413744 2.093698 C 13.461093 2.448344 14.28209 2.931378 14.878545 3.542898 C 15.474951 4.155321 15.883265 4.859196 16.101579 5.656234 L 11.070585 5.656004 C 10.54455 4.932198 9.67987 4.570143 8.476495 4.570741 C 7.341178 4.570465 6.504851 4.895485 5.968372 5.546756 C 5.54197 6.073362 5.328202 6.693013 5.327924 7.406661 C 5.327694 8.119405 5.54207 8.736682 5.968389 9.257441 C 6.505546 9.9093 7.341379 10.234439 8.476696 10.234716 C 9.393517 10.234128 10.082411 10.15509 10.542571 9.995744 C 11.003586 9.837351 11.341154 9.630609 11.554418 9.374563 L 9.719016 9.374737 L 9.718754 7.406029 L 16.101801 7.406398 L 16.10174 13.007788 L 14.148451 13.007972 L 13.749801 11.92194 C 12.505507 12.801763 10.747091 13.242253 8.476408 13.242604 Z M 8.476408 13.242604 " stroke="#231f20" stroke-width="1.9" stroke-opacity="1" stroke-miterlimit="4"/><path stroke-linecap="butt" transform="matrix(4.311291, -0.149484, 0.149484, 4.311291, 636.503187, 755.611211)" fill="none" stroke-linejoin="miter" d="M 1.250104 1.788879 L 5.953415 1.788867 L 5.953378 13.000341 L 1.250067 13.000354 Z M 1.250104 1.788879 " stroke="#231f20" stroke-width="1.9" stroke-opacity="1" stroke-miterlimit="4"/><path stroke-linecap="butt" transform="matrix(4.313342, -0.0682133, 0.0682133, 4.313342, 668.33424, 754.320083)" fill="none" stroke-linejoin="miter" d="M 8.476781 13.242056 C 5.705574 13.242607 3.666998 12.671523 2.359199 11.531495 C 1.203227 10.526087 0.625448 9.151275 0.624972 7.406137 C 0.625402 5.661014 1.203235 4.283647 2.359391 3.273147 C 3.666942 2.138254 5.705423 1.570065 8.476615 1.57042 C 10.101293 1.570756 11.445007 1.756829 12.507759 2.128639 C 13.570497 2.501355 14.395613 3.010684 14.984012 3.65664 C 15.573331 4.301705 15.963728 5.041431 16.156123 5.874928 L 11.210536 5.874599 C 10.716227 5.005537 9.804815 4.57001 8.476259 4.570734 C 7.341529 4.569996 6.504979 4.898185 5.968436 5.554425 C 5.541796 6.075655 5.328274 6.692628 5.327856 7.40625 C 5.328344 8.119887 5.541363 8.737266 5.968738 9.257511 C 6.505344 9.914421 7.341487 10.241895 8.476217 10.242633 C 9.804774 10.241909 10.716407 9.804421 11.211131 8.929265 L 16.155813 8.92958 C 15.963243 9.767856 15.572947 10.510631 14.984048 11.156081 C 14.396041 11.802451 13.570223 12.311029 12.507471 12.683639 C 11.445625 13.056263 10.101458 13.242392 8.476781 13.242056 Z M 8.476781 13.242056 " stroke="#231f20" stroke-width="1.9" stroke-opacity="1" stroke-miterlimit="4"/><path stroke-linecap="butt" transform="matrix(4.313706, 0.0389272, -0.0389272, 4.313706, 741.749033, 753.224219)" fill="none" stroke-linejoin="miter" d="M 7.406636 13.242482 C 5.890757 13.242579 4.66952 13.079735 3.74202 12.753959 C 2.815425 12.428175 2.109592 11.980867 1.62541 11.410216 C 1.140322 10.839573 0.814734 10.18237 0.648639 9.437701 L 5.640904 9.437927 C 6.010629 9.968862 6.598911 10.23431 7.406656 10.234266 C 8.213495 10.234229 8.802422 9.969023 9.171617 9.43776 C 9.202843 9.385862 9.218717 9.338631 9.218341 9.296979 C 9.218885 9.156615 9.032292 9.050539 8.660387 8.980546 C 8.287577 8.910561 7.731993 8.856714 6.991831 8.819928 C 6.059653 8.778535 5.080773 8.679608 4.054286 8.523157 C 1.768213 8.168892 0.625276 7.250118 0.62456 5.765938 C 0.625243 5.640967 0.633097 5.507781 0.648129 5.367286 C 0.815271 4.622326 1.140765 3.964681 1.624612 3.394349 C 2.109364 2.82401 2.815274 2.37664 3.742323 2.050429 C 4.669381 1.725122 5.890401 1.562878 7.406281 1.562782 C 8.92216 1.562685 10.143397 1.725529 11.069984 2.050408 C 11.997484 2.376184 12.703325 2.824397 13.187499 3.394143 C 13.671681 3.964794 13.997269 4.621997 14.164278 5.367564 L 9.172013 5.367337 C 8.802279 4.835497 8.213092 4.570056 7.406253 4.570093 C 6.598508 4.570138 6.010495 4.836241 5.640394 5.367512 C 5.614503 5.408496 5.601272 5.447553 5.601607 5.484678 C 5.601829 5.609641 5.780151 5.702208 6.136565 5.761474 C 6.493892 5.821638 7.019563 5.872132 7.714492 5.913855 C 8.410326 5.95557 9.150765 6.023142 9.937628 6.117463 C 10.723577 6.210885 11.459442 6.373582 12.144315 6.605559 C 12.829188 6.837537 13.364734 7.179527 13.750055 7.632444 C 14.052039 7.981976 14.202729 8.424332 14.203047 8.961317 C 14.203498 9.111633 14.190449 9.271127 14.163874 9.437081 C 13.997638 10.182033 13.672143 10.839678 13.187391 11.410017 C 12.703544 11.980348 11.997643 12.428624 11.070585 12.75393 C 10.143527 13.079236 8.92161 13.242394 7.406636 13.242482 Z M 7.406636 13.242482 " stroke="#231f20" stroke-width="1.9" stroke-opacity="1" stroke-miterlimit="4"/><path stroke-linecap="butt" transform="matrix(4.311672, 0.138051, -0.138051, 4.311672, 806.666796, 753.831059)" fill="none" stroke-linejoin="miter" d="M 9.562283 13.000057 L 4.859394 13.000242 L 4.859229 4.56294 L 0.468869 4.562179 L 0.468863 1.789002 L 13.953348 1.789405 L 13.953354 4.562582 L 9.562118 4.562755 Z M 9.562283 13.000057 " stroke="#231f20" stroke-width="1.9" stroke-opacity="1" stroke-miterlimit="4"/><path stroke-linecap="butt" transform="matrix(4.307184, 0.240301, -0.240301, 4.307184, 869.834718, 755.829707)" fill="none" stroke-linejoin="miter" d="M 7.882858 13.24247 C 5.14847 13.241755 3.224083 12.674373 2.109649 11.53942 C 1.172212 10.585951 0.703559 9.208193 0.702785 7.406196 L 0.702726 1.79693 L 5.405971 1.796632 L 5.40603 7.405898 C 5.406113 8.187654 5.539413 8.805081 5.805027 9.258231 C 6.185058 9.909053 6.877935 10.23407 7.882806 10.234236 C 8.898577 10.234701 9.594115 9.908405 9.968667 9.258109 C 10.234517 8.788913 10.366976 8.172076 10.366897 7.406644 L 10.366788 1.796474 L 15.070083 1.797079 L 15.070005 7.46893 C 15.070267 9.229238 14.604515 10.585667 13.671895 11.539172 C 12.551714 12.674548 10.622621 13.241979 7.882858 13.24247 Z M 7.882858 13.24247 " stroke="#231f20" stroke-width="1.9" stroke-opacity="1" stroke-miterlimit="4"/><path stroke-linecap="butt" transform="matrix(4.299306, 0.354319, -0.354319, 4.299306, 938.876256, 759.633611)" fill="none" stroke-linejoin="miter" d="M 8.750369 12.999996 L 1.250091 13.000285 L 1.250186 1.789348 L 8.749561 1.789133 C 11.817802 1.788855 14.023802 2.218523 15.367562 3.07814 C 16.450461 3.77118 17.067805 4.713377 17.21884 5.906611 C 17.286725 6.421631 17.320485 6.919474 17.319972 7.398337 C 17.31999 7.872612 17.288179 8.368591 17.222734 8.886422 C 17.157364 9.405155 16.984325 9.907321 16.702864 10.3948 C 16.42223 10.881302 15.975076 11.320653 15.363056 11.710899 C 14.751036 12.101146 13.912741 12.413731 12.847267 12.648729 C 11.782622 12.882751 10.416688 12.999865 8.750369 12.999996 Z M 8.304647 10.226501 C 10.695125 10.226656 12.047291 9.622771 12.359265 8.414093 C 12.44312 8.075552 12.484262 7.736896 12.484497 7.397978 C 12.48436 7.054547 12.441807 6.714612 12.355109 6.379224 C 12.26924 6.042858 12.086937 5.738063 11.808201 5.464839 C 11.530367 5.19154 11.111638 4.972556 10.554794 4.808566 C 9.997048 4.64465 9.247095 4.562901 8.30486 4.562416 L 5.953485 4.562673 L 5.953271 10.226759 Z M 8.304647 10.226501 " stroke="#231f20" stroke-width="1.9" stroke-opacity="1" stroke-miterlimit="4"/><path stroke-linecap="butt" transform="matrix(4.291466, 0.4392, -0.4392, 4.291466, 1016.82357, 766.296658)" fill="none" stroke-linejoin="miter" d="M 1.250047 1.789076 L 5.953258 1.789252 L 5.952765 12.999777 L 1.249554 12.999601 Z M 1.250047 1.789076 " stroke="#231f20" stroke-width="1.9" stroke-opacity="1" stroke-miterlimit="4"/><path stroke-linecap="butt" transform="matrix(4.282357, 0.520571, -0.520571, 4.282357, 1048.539903, 769.349506)" fill="none" stroke-linejoin="miter" d="M 8.476356 13.241936 C 5.706107 13.242101 3.666489 12.671822 2.359301 11.53088 C 1.203068 10.521183 0.625046 9.142918 0.624663 7.39889 C 0.624717 5.658458 1.202852 4.283771 2.35986 3.273822 C 3.666915 2.132524 5.705677 1.562691 8.476825 1.562417 C 11.247074 1.562252 13.286692 2.132531 14.593881 3.273473 C 15.750223 4.284069 16.327808 5.658738 16.328544 7.398163 C 16.328137 9.143199 15.750329 10.520582 14.593431 11.53143 C 13.286266 12.671829 11.247614 13.242561 8.476356 13.241936 Z M 8.476546 10.234479 C 9.612163 10.234169 10.44552 9.90847 10.976616 9.257382 C 11.403507 8.732071 11.61732 8.112255 11.617156 7.398043 C 11.617101 6.684731 11.403433 6.067622 10.976154 5.546719 C 10.44488 4.890685 9.612278 4.562264 8.476661 4.562574 C 7.341043 4.562883 6.505208 4.890708 5.968366 5.547056 C 5.541827 6.067763 5.327687 6.684883 5.327742 7.398195 C 5.327906 8.112407 5.541792 8.731313 5.968828 9.257719 C 6.504949 9.908603 7.340928 10.234789 8.476546 10.234479 Z M 8.476546 10.234479 " stroke="#231f20" stroke-width="1.9" stroke-opacity="1" stroke-miterlimit="4"/><g fill="#ffffff" fill-opacity="1"><g transform="translate(382.695347, 833.619471)"><g><path d="M 96.671875 -11.21875 L 76.515625 -8.875 L 72.953125 -39.5 L 58.515625 -6.796875 L 43.484375 -5.046875 L 21.9375 -33.578125 L 25.5 -2.953125 L 5.359375 -0.625 L -0.21875 -48.65625 L 23.703125 -51.4375 L 49.421875 -19.640625 L 67.125 -56.46875 L 91.09375 -59.25 Z M 96.671875 -11.21875 "/></g></g></g><g fill="#ffffff" fill-opacity="1"><g transform="translate(484.269162, 821.997877)"><g><path d="M 80.9375 -6.65625 L 60.453125 -4.96875 L 55.265625 -12.484375 L 24.859375 -9.984375 L 20.984375 -1.71875 L 0.5 -0.046875 L 27.375 -50.75 L 46.15625 -52.28125 Z M 47.46875 -23.84375 L 37.90625 -37.78125 L 30.71875 -22.46875 Z M 47.46875 -23.84375 "/></g></g></g><g fill="#ffffff" fill-opacity="1"><g transform="translate(565.31704, 815.390522)"><g><path d="M 36.578125 -0.921875 C 24.640625 -0.273438 15.71875 -2.253906 9.8125 -6.859375 C 4.613281 -10.953125 1.8125 -16.742188 1.40625 -24.234375 C 1 -31.753906 3.164062 -37.820312 7.90625 -42.4375 C 13.28125 -47.644531 21.9375 -50.570312 33.875 -51.21875 C 40.675781 -51.582031 46.367188 -51.125 50.953125 -49.84375 C 55.535156 -48.5625 59.179688 -46.671875 61.890625 -44.171875 C 64.597656 -41.679688 66.519531 -38.742188 67.65625 -35.359375 L 45.984375 -34.1875 C 43.546875 -37.1875 39.738281 -38.550781 34.5625 -38.28125 C 29.664062 -38.007812 26.144531 -36.410156 24 -33.484375 C 22.269531 -31.117188 21.488281 -28.398438 21.65625 -25.328125 C 21.820312 -22.253906 22.890625 -19.644531 24.859375 -17.5 C 27.304688 -14.8125 30.976562 -13.601562 35.875 -13.875 C 39.820312 -14.082031 42.769531 -14.582031 44.71875 -15.375 C 46.664062 -16.164062 48.066406 -17.140625 48.921875 -18.296875 L 41.015625 -17.875 L 40.5625 -26.34375 L 68.0625 -27.828125 L 69.359375 -3.703125 L 60.9375 -3.25 L 58.96875 -7.84375 C 53.8125 -3.75 46.347656 -1.441406 36.578125 -0.921875 Z M 36.578125 -0.921875 "/></g></g></g><g fill="#ffffff" fill-opacity="1"><g transform="translate(638.446482, 811.657997)"><g><path d="M 25.65625 -0.890625 L 5.390625 -0.1875 L 3.71875 -48.515625 L 23.984375 -49.21875 Z M 25.65625 -0.890625 "/></g></g></g><g fill="#ffffff" fill-opacity="1"><g transform="translate(669.221013, 810.393533)"><g><path d="M 36.578125 0.46875 C 24.628906 0.65625 15.796875 -1.660156 10.078125 -6.484375 C 5.023438 -10.753906 2.441406 -16.648438 2.328125 -24.171875 C 2.203125 -31.703125 4.597656 -37.679688 9.515625 -42.109375 C 15.078125 -47.097656 23.832031 -49.6875 35.78125 -49.875 C 42.789062 -49.988281 48.597656 -49.28125 53.203125 -47.75 C 57.804688 -46.21875 61.394531 -44.078125 63.96875 -41.328125 C 66.550781 -38.578125 68.289062 -35.414062 69.1875 -31.84375 L 47.875 -31.5 C 45.675781 -35.21875 41.710938 -37.03125 35.984375 -36.9375 C 31.085938 -36.863281 27.507812 -35.390625 25.25 -32.515625 C 23.4375 -30.242188 22.554688 -27.566406 22.609375 -24.484375 C 22.648438 -21.410156 23.613281 -18.765625 25.5 -16.546875 C 27.851562 -13.753906 31.476562 -12.394531 36.375 -12.46875 C 42.101562 -12.5625 46.003906 -14.515625 48.078125 -18.328125 L 69.390625 -18.671875 C 68.617188 -15.023438 66.984375 -11.789062 64.484375 -8.96875 C 61.992188 -6.15625 58.472656 -3.90625 53.921875 -2.21875 C 49.367188 -0.539062 43.585938 0.351562 36.578125 0.46875 Z M 36.578125 0.46875 "/></g></g></g><g fill="#ffffff" fill-opacity="1"><g transform="translate(741.24298, 809.302402)"><g><path d="M 31.9375 1.328125 C 25.394531 1.273438 20.128906 0.53125 16.140625 -0.90625 C 12.160156 -2.351562 9.132812 -4.316406 7.0625 -6.796875 C 5 -9.273438 3.625 -12.117188 2.9375 -15.328125 L 24.46875 -15.140625 C 26.039062 -12.835938 28.570312 -11.671875 32.0625 -11.640625 C 35.539062 -11.609375 38.085938 -12.726562 39.703125 -15 C 39.835938 -15.226562 39.90625 -15.429688 39.90625 -15.609375 C 39.914062 -16.222656 39.117188 -16.6875 37.515625 -17 C 35.910156 -17.320312 33.507812 -17.578125 30.3125 -17.765625 C 26.300781 -17.972656 22.082031 -18.4375 17.65625 -19.15625 C 7.8125 -20.757812 2.921875 -24.765625 2.984375 -31.171875 C 2.984375 -31.710938 3.019531 -32.285156 3.09375 -32.890625 C 3.84375 -36.109375 5.269531 -38.9375 7.375 -41.375 C 9.488281 -43.8125 12.550781 -45.710938 16.5625 -47.078125 C 20.570312 -48.441406 25.847656 -49.097656 32.390625 -49.046875 C 38.921875 -48.984375 44.179688 -48.234375 48.171875 -46.796875 C 52.160156 -45.359375 55.1875 -43.398438 57.25 -40.921875 C 59.320312 -38.441406 60.703125 -35.59375 61.390625 -32.375 L 39.859375 -32.5625 C 38.285156 -34.875 35.757812 -36.046875 32.28125 -36.078125 C 28.789062 -36.109375 26.238281 -34.984375 24.625 -32.703125 C 24.507812 -32.523438 24.453125 -32.359375 24.453125 -32.203125 C 24.441406 -31.660156 25.207031 -31.25 26.75 -30.96875 C 28.289062 -30.695312 30.554688 -30.457031 33.546875 -30.25 C 36.546875 -30.050781 39.738281 -29.734375 43.125 -29.296875 C 46.519531 -28.859375 49.6875 -28.125 52.625 -27.09375 C 55.570312 -26.070312 57.867188 -24.582031 59.515625 -22.625 C 60.804688 -21.101562 61.441406 -19.1875 61.421875 -16.875 C 61.410156 -16.21875 61.347656 -15.53125 61.234375 -14.8125 C 60.484375 -11.601562 59.050781 -8.78125 56.9375 -6.34375 C 54.832031 -3.90625 51.769531 -2 47.75 -0.625 C 43.738281 0.738281 38.46875 1.390625 31.9375 1.328125 Z M 31.9375 1.328125 "/></g></g></g><g fill="#ffffff" fill-opacity="1"><g transform="translate(804.872138, 809.8828)"><g><path d="M 41.234375 1.3125 L 20.9375 0.671875 L 22.109375 -35.703125 L 3.1875 -36.3125 L 3.5625 -48.265625 L 61.703125 -46.40625 L 61.328125 -34.453125 L 42.40625 -35.0625 Z M 41.234375 1.3125 "/></g></g></g><g fill="#ffffff" fill-opacity="1"><g transform="translate(866.710812, 811.8231)"><g><path d="M 33.890625 2.9375 C 22.109375 2.28125 13.953125 -0.625 9.421875 -5.78125 C 5.617188 -10.113281 3.9375 -16.160156 4.375 -23.921875 L 5.71875 -48.078125 L 25.96875 -46.953125 L 24.625 -22.796875 C 24.4375 -19.429688 24.863281 -16.738281 25.90625 -14.71875 C 27.375 -11.820312 30.273438 -10.253906 34.609375 -10.015625 C 38.984375 -9.765625 42.0625 -11 43.84375 -13.71875 C 45.09375 -15.675781 45.8125 -18.304688 46 -21.609375 L 47.34375 -45.765625 L 67.59375 -44.625 L 66.234375 -20.203125 C 65.804688 -12.617188 63.46875 -6.882812 59.21875 -3 C 54.132812 1.613281 45.691406 3.59375 33.890625 2.9375 Z M 33.890625 2.9375 "/></g></g></g><g fill="#ffffff" fill-opacity="1"><g transform="translate(934.270106, 815.524593)"><g><path d="M 37.625 3.09375 L 5.375 0.4375 L 9.34375 -47.765625 L 41.59375 -45.109375 C 54.78125 -44.015625 64.109375 -41.382812 69.578125 -37.21875 C 73.984375 -33.851562 76.300781 -29.578125 76.53125 -24.390625 C 76.632812 -22.148438 76.601562 -20 76.4375 -17.9375 C 76.269531 -15.894531 75.957031 -13.773438 75.5 -11.578125 C 75.039062 -9.378906 74.117188 -7.28125 72.734375 -5.28125 C 71.359375 -3.289062 69.28125 -1.5625 66.5 -0.09375 C 63.726562 1.375 60.007812 2.421875 55.34375 3.046875 C 50.6875 3.671875 44.78125 3.6875 37.625 3.09375 Z M 36.6875 -8.984375 C 46.96875 -8.128906 52.988281 -10.25 54.75 -15.34375 C 55.21875 -16.757812 55.515625 -18.195312 55.640625 -19.65625 C 55.765625 -21.132812 55.703125 -22.609375 55.453125 -24.078125 C 55.210938 -25.554688 54.539062 -26.929688 53.4375 -28.203125 C 52.332031 -29.484375 50.609375 -30.570312 48.265625 -31.46875 C 45.929688 -32.375 42.738281 -32.992188 38.6875 -33.328125 L 28.5625 -34.15625 L 26.5625 -9.8125 Z M 36.6875 -8.984375 "/></g></g></g><g fill="#ffffff" fill-opacity="1"><g transform="translate(1011.113967, 822.08572)"><g><path d="M 25.53125 2.609375 L 5.359375 0.546875 L 10.28125 -47.5625 L 30.453125 -45.5 Z M 25.53125 2.609375 "/></g></g></g><g fill="#ffffff" fill-opacity="1"><g transform="translate(1041.772475, 825.020145)"><g><path d="M 36.171875 5.453125 C 24.304688 4.015625 15.867188 0.515625 10.859375 -5.046875 C 6.441406 -9.984375 4.691406 -16.1875 5.609375 -23.65625 C 6.515625 -31.101562 9.695312 -36.6875 15.15625 -40.40625 C 21.351562 -44.613281 30.382812 -46 42.25 -44.5625 C 54.113281 -43.113281 62.550781 -39.609375 67.5625 -34.046875 C 71.988281 -29.117188 73.75 -22.929688 72.84375 -15.484375 C 71.925781 -8.015625 68.734375 -2.414062 63.265625 1.3125 C 57.066406 5.519531 48.035156 6.898438 36.171875 5.453125 Z M 37.734375 -7.421875 C 42.585938 -6.828125 46.328125 -7.785156 48.953125 -10.296875 C 51.054688 -12.335938 52.296875 -14.882812 52.671875 -17.9375 C 53.035156 -21 52.4375 -23.753906 50.875 -26.203125 C 48.9375 -29.285156 45.539062 -31.125 40.6875 -31.71875 C 35.820312 -32.300781 32.070312 -31.332031 29.4375 -28.8125 C 27.332031 -26.800781 26.097656 -24.265625 25.734375 -21.203125 C 25.359375 -18.148438 25.953125 -15.382812 27.515625 -12.90625 C 29.460938 -9.832031 32.867188 -8.003906 37.734375 -7.421875 Z M 37.734375 -7.421875 "/></g></g></g></svg>